<?xml version="1.0" encoding="UTF-8"?>
<svg id="Capa_2" data-name="Capa 2" xmlns="http://www.w3.org/2000/svg" width="100" height="100" viewBox="0 0 100 100">
  <defs>
    <style>
      .cls-1 {
        fill: #00c8ff;
      }

      .cls-1, .cls-2 {
        stroke-width: 0px;
      }

      .cls-2 {
        fill: #00367b;
      }
    </style>
  </defs>
  <path class="cls-2" d="M76.85,7.15c-.12-.08-.26-.19-.42-.32-1.11-.86-2.96-2.29-5.17-1.92-1.27.21-2.35.98-3.21,2.28l-15.47,24.4c-1.77,2.79-1.2,6.51,1.33,8.66l5.04,3.98c.33.56.38,1.32.19,2.3-1.42,6.95-13.96,18.22-16.88,19.93-2.65,1.56-4.24.2-4.31.14l-7.96-7.02c-.82-.8-1.91-1.24-3.05-1.24s-2.27.46-3.09,1.28l-16.56,16.56c-2.06,2.06-2.28,5.59-.49,7.86,3.84,4.9,9.1,8.16,15.64,9.7,2.7.64,5.55.96,8.48.96s6.02-.33,9.03-.98c12.98-2.8,25.32-11.98,34.74-25.86.71-1.04,1.41-2.11,2.08-3.18.57-.9.33-2.09-.53-2.71-.46-.33-1-.45-1.57-.34-.55.11-1.02.43-1.33.91-.68,1.08-1.35,2.11-2,3.06-5.11,7.53-16.11,20.69-32.25,24.18-17.98,3.88-26.83-5.32-29.11-8.23-.54-.69-.46-1.89.17-2.52l16.56-16.56c.17-.17.3-.18.5.01l8.04,7.1c.39.35,4,3.33,9.07.34,1.92-1.13,6.2-4.76,10.04-8.87,3.47-3.71,7.8-9.11,8.74-13.73.46-2.24.11-4.16-1.01-5.69l-.13-.18-5.45-4.31c-.98-.84-1.19-2.3-.5-3.39l15.45-24.37c.23-.36.41-.47.47-.49.45-.07,1.65.83,2.04,1.13.22.17.43.33.59.44,8.46,5.84,11.72,14.66,9.69,26.2-.86,4.86-2.65,10.17-5.34,15.8-.42.88-.15,1.93.64,2.5.49.35,1.11.47,1.68.32.59-.15,1.07-.55,1.33-1.1,3.55-7.49,5.04-13.28,5.66-16.82,2.33-13.24-1.5-23.41-11.38-30.22Z"/>
  <g>
    <path class="cls-1" d="M24.21,47.23c-1.41,0-2.55,1.14-2.55,2.55s1.14,2.55,2.55,2.55,2.55-1.14,2.55-2.55-1.14-2.55-2.55-2.55Z"/>
    <path class="cls-1" d="M31.87,49.78c0,1.41,1.14,2.55,2.55,2.55s2.55-1.14,2.55-2.55-1.14-2.55-2.55-2.55-2.55,1.14-2.55,2.55"/>
    <path class="cls-1" d="M44.64,47.23c-1.41,0-2.55,1.14-2.55,2.55s1.14,2.55,2.55,2.55,2.55-1.14,2.55-2.55-1.14-2.55-2.55-2.55Z"/>
  </g>
</svg>