<?xml version="1.0" encoding="UTF-8"?>
<svg id="Capa_2" data-name="Capa 2" xmlns="http://www.w3.org/2000/svg" width="100" height="100" viewBox="0 0 100 100">
  <defs>
    <style>
      .cls-1 {
        fill: #00c8ff;
      }

      .cls-1, .cls-2 {
        stroke-width: 0px;
      }

      .cls-2 {
        fill: #00367b;
      }
    </style>
  </defs>
  <path class="cls-2" d="M58.13,9.45l2.73,2.21-10.57,8.32-.41,5.95s3.72,8.91,4.29,9.07c.19.06,1.25.08,2.58.08,2.66,0,6.4-.08,6.4-.08l3.5,4.09,10.1-.51-2.35,4.6,3.92,19.08-3.09-3.48-11.37,1.68-1.03,8.44,5.02,5.92-3.4,15.86-1.77-3.24-3.1,1.03,2.88-8.35-3.11-1.26-11.12.35-6.51-9.62-21.17-8.36,6.65-6.79,1.52-15.52-2.39-5.59,2.76-5.63,2.7.62,7.47-9.46,18.88-9.41M58.13,6.14c-.5,0-1.01.11-1.48.35l-18.88,9.41c-.44.22-.82.53-1.12.91l-6.17,7.82-.66-.15c-.25-.06-.49-.08-.74-.08-1.24,0-2.41.7-2.97,1.85l-2.76,5.63c-.43.87-.45,1.87-.07,2.76l2.05,4.81-1.33,13.52-5.84,5.96c-.78.79-1.1,1.92-.87,3.01.23,1.09.99,1.98,2.02,2.39l20.22,7.98,5.94,8.77c.62.91,1.64,1.45,2.74,1.45.03,0,.07,0,.1,0l9.9-.31-1.79,5.19c-.41,1.19-.11,2.51.77,3.41.63.64,1.49.99,2.36.99.35,0,.7-.05,1.04-.17l.48-.16.44.81c.59,1.07,1.71,1.72,2.9,1.72.16,0,.32-.01.48-.03,1.37-.2,2.47-1.23,2.76-2.58l3.4-15.86c.21-1-.05-2.05-.71-2.83l-4.08-4.81.55-4.5,7.1-1.05,1.9,2.14c.64.72,1.55,1.11,2.47,1.11.5,0,1.01-.11,1.48-.35,1.34-.67,2.06-2.16,1.76-3.63l-3.69-17.94,1.82-3.56c.54-1.05.48-2.31-.17-3.31-.61-.95-1.66-1.51-2.78-1.51-.06,0-.11,0-.17,0l-8.48.43-2.44-2.86c-.63-.74-1.55-1.16-2.52-1.16-.02,0-.04,0-.07,0,0,0-3.7.07-6.33.07-.23,0-.45,0-.66,0-.72-1.49-1.86-4.05-2.85-6.39l.26-3.7,9.42-7.41c.79-.62,1.26-1.57,1.26-2.58,0-1.01-.44-1.96-1.23-2.6l-2.73-2.21c-.6-.49-1.34-.74-2.09-.74h0Z"/>
  <circle class="cls-1" cx="39.09" cy="35.81" r="4.71"/>
  <circle class="cls-1" cx="57.95" cy="47.93" r="4.71"/>
  <circle class="cls-1" cx="42.01" cy="57.59" r="4.71"/>
</svg>