<?xml version="1.0" encoding="UTF-8"?>
<svg id="Capa_2" data-name="Capa 2" xmlns="http://www.w3.org/2000/svg" width="100" height="100" viewBox="0 0 100 100">
  <defs>
    <style>
      .cls-1, .cls-2 {
        fill: none;
      }

      .cls-1, .cls-3 {
        stroke-width: 0px;
      }

      .cls-2 {
        stroke: #00a1e0;
        stroke-miterlimit: 10;
        stroke-width: 3px;
      }

      .cls-2, .cls-3 {
        fill-rule: evenodd;
      }

      .cls-3 {
        fill: #00377d;
      }
    </style>
  </defs>
  <g id="Capa_1-2" data-name="Capa 1">
    <g>
      <rect class="cls-1" width="100" height="100"/>
      <g>
        <path class="cls-2" d="M42.2,28.33c2.95-3.07,7.06-4.98,11.6-4.98,6.03,0,11.3,3.37,14.11,8.36,2.51-1.12,5.23-1.7,7.97-1.69,10.89,0,19.71,8.9,19.71,19.89s-8.82,19.89-19.71,19.89c-1.33,0-2.63-.13-3.88-.39-2.47,4.4-7.18,7.38-12.58,7.38-2.26,0-4.4-.52-6.3-1.45-2.5,5.89-8.34,10.02-15.13,10.02s-13.11-4.48-15.43-10.76c-1.03.22-2.08.33-3.14.33-8.43,0-15.26-6.9-15.26-15.42-.01-5.49,2.89-10.58,7.63-13.36-.97-2.23-1.46-4.63-1.46-7.05,0-9.8,7.95-17.74,17.76-17.74,5.54,0,10.76,2.58,14.12,6.98"/>
        <path class="cls-3" d="M17.4,54.54l.37-1.03c.06-.18.19-.12.25-.08.1.06.18.12.31.19,1.09.69,2.1.7,2.41.7.82,0,1.32-.43,1.32-1.01v-.03c0-.63-.78-.87-1.68-1.15l-.2-.06c-1.24-.35-2.56-.86-2.56-2.43v-.03c0-1.49,1.2-2.52,2.91-2.52h.19c1.01,0,1.98.29,2.69.72.06.04.13.11.09.21l-.38,1.03c-.07.17-.25.06-.25.06-.74-.38-1.55-.59-2.38-.61-.73,0-1.2.39-1.2.91v.03c0,.61.8.87,1.73,1.17l.16.05c1.23.39,2.55.93,2.55,2.42v.03c0,1.61-1.17,2.6-3.04,2.6-.92,0-1.8-.14-2.73-.64-.18-.1-.35-.19-.52-.31-.02-.03-.1-.06-.04-.21h0ZM44.85,54.54l.37-1.03c.05-.17.21-.11.24-.08.1.06.18.12.31.19,1.09.69,2.1.7,2.42.7.81,0,1.32-.43,1.32-1.01v-.03c0-.63-.78-.87-1.68-1.15l-.2-.06c-1.24-.35-2.56-.86-2.56-2.43v-.03c0-1.49,1.2-2.52,2.92-2.52h.19c1.01,0,1.98.29,2.69.72.06.04.12.11.09.21-.03.09-.35.93-.38,1.03-.07.17-.25.06-.25.06-.74-.38-1.55-.59-2.38-.61-.73,0-1.2.39-1.2.91v.03c0,.61.8.87,1.73,1.17l.16.05c1.23.39,2.55.93,2.55,2.42v.03c0,1.61-1.17,2.6-3.04,2.6-.92,0-1.8-.14-2.73-.64-.18-.1-.35-.19-.52-.31-.02-.03-.1-.06-.04-.21ZM65.16,49.71c.15.52.23,1.08.23,1.68s-.08,1.16-.23,1.68c-.14.5-.38.96-.71,1.36-.33.39-.74.7-1.2.91-.48.22-1.04.33-1.68.33s-1.2-.11-1.68-.33c-.46-.21-.88-.52-1.2-.91-.33-.4-.57-.86-.71-1.36-.16-.55-.23-1.11-.23-1.68,0-.6.08-1.17.23-1.68.15-.52.39-.98.71-1.36.33-.39.74-.7,1.21-.91.48-.22,1.04-.34,1.68-.34s1.2.11,1.68.34c.48.22.88.53,1.2.91.32.38.56.84.71,1.36ZM63.6,51.39c0-.91-.17-1.62-.5-2.12-.33-.5-.83-.74-1.53-.74s-1.19.24-1.52.74c-.33.5-.49,1.21-.49,2.12s.17,1.62.5,2.13c.32.5.82.74,1.52.74s1.2-.24,1.53-.74c.33-.5.5-1.22.5-2.13ZM78.02,54.02l.38,1.06c.05.13-.06.19-.06.19-.59.23-1.42.39-2.22.39-1.36,0-2.4-.39-3.09-1.16-.69-.77-1.04-1.82-1.04-3.12,0-.6.09-1.17.26-1.68.17-.52.43-.98.76-1.36.35-.39.78-.7,1.26-.91.5-.22,1.09-.33,1.74-.33.44,0,.84.03,1.18.08.36.06.84.19,1.04.26.04.01.14.06.1.18-.15.42-.25.69-.39,1.07-.06.16-.18.11-.18.11-.51-.16-1.01-.24-1.65-.24-.78,0-1.36.26-1.74.76-.38.51-.6,1.18-.6,2.06,0,.97.24,1.69.67,2.14.43.44,1.03.67,1.79.67.31,0,.6-.02.86-.06.26-.04.5-.12.73-.21,0,0,.15-.06.2.1ZM86.03,49.42c.34,1.19.16,2.23.16,2.28-.01.14-.15.14-.15.14h-5.3c.03.8.23,1.37.62,1.76.38.38.99.62,1.81.62,1.26,0,1.79-.25,2.18-.39,0,0,.14-.05.2.09l.35.97c.07.16.01.22-.04.25-.33.18-1.14.53-2.67.53-.74,0-1.39-.1-1.92-.31-.51-.19-.96-.49-1.33-.88-.35-.39-.62-.85-.77-1.35-.16-.55-.24-1.12-.24-1.69,0-.6.08-1.17.23-1.69.15-.52.4-.99.72-1.38.33-.4.75-.71,1.22-.93.49-.23,1.09-.34,1.75-.34.57,0,1.08.12,1.52.31.33.14.67.4,1.01.77.22.23.54.74.68,1.24h0ZM80.76,50.52h3.78c-.04-.49-.13-.92-.35-1.25-.33-.5-.79-.77-1.49-.77s-1.19.27-1.52.77c-.21.33-.35.75-.43,1.25h0ZM43.59,49.42c.34,1.19.17,2.23.16,2.28-.01.14-.15.14-.15.14h-5.3c.03.8.23,1.37.62,1.76.38.38.99.62,1.81.62,1.26,0,1.8-.25,2.18-.39,0,0,.15-.05.2.09l.35.97c.07.16.01.22-.04.25-.33.18-1.14.53-2.67.53-.74,0-1.39-.1-1.92-.31-.51-.19-.96-.49-1.33-.88-.35-.39-.62-.85-.77-1.35-.17-.55-.25-1.12-.24-1.69,0-.6.08-1.17.23-1.69.14-.5.39-.97.72-1.38.33-.4.75-.71,1.22-.93.49-.23,1.09-.34,1.75-.34.52,0,1.04.1,1.52.31.33.14.67.4,1.01.77.22.23.54.74.68,1.24ZM38.32,50.52h3.78c-.04-.49-.13-.92-.35-1.25-.33-.5-.79-.77-1.49-.77s-1.19.27-1.52.77c-.22.33-.35.75-.43,1.25h0ZM28.97,50.27s.42.04.87.1v-.22c0-.71-.15-1.04-.44-1.26-.3-.23-.74-.34-1.31-.34,0,0-1.29-.02-2.31.54-.05.03-.09.04-.09.04,0,0-.13.05-.17-.09l-.38-1.01c-.06-.15.05-.21.05-.21.48-.37,1.63-.6,1.63-.6.47-.08.94-.13,1.42-.13,1.06,0,1.88.25,2.43.73.56.49.84,1.28.84,2.34v4.85s.01.14-.12.17c0,0-.19.05-.37.1-.18.04-.82.17-1.34.26-.53.09-1.07.13-1.61.13-.51,0-.99-.05-1.4-.14-.39-.08-.75-.24-1.08-.47-.3-.21-.53-.5-.69-.83-.16-.33-.25-.74-.25-1.21s.1-.87.28-1.22c.19-.35.45-.64.77-.87.33-.24.71-.41,1.1-.51.41-.11.85-.17,1.31-.17.33,0,.61,0,.83.02h0ZM26.86,53.99s.48.38,1.55.31c.76-.05,1.43-.19,1.43-.19v-2.41s-.68-.11-1.44-.12c-1.08-.01-1.54.38-1.54.38-.32.23-.47.56-.47,1.02,0,.3.05.53.16.69.07.11.1.15.3.31ZM71.72,47.54c-.05.15-.31.87-.4,1.11-.03.09-.09.16-.19.14,0,0-.3-.07-.58-.07-.19,0-.46.02-.71.1-.25.08-.47.21-.65.39-.19.19-.35.45-.46.78-.12.33-.18.86-.18,1.39v3.95c0,.09-.07.16-.16.16,0,0,0,0,0,0h-1.39c-.09,0-.16-.07-.16-.16h0v-7.91c0-.09.06-.16.15-.16h1.36c.09,0,.15.07.15.16v.65c.2-.27.57-.51.9-.66.33-.15.7-.26,1.37-.22.35.02.8.12.89.15.07.03.11.11.08.19,0,0,0,0,0,0ZM58.65,43.88s.14.06.1.18l-.41,1.11c-.03.08-.06.13-.23.08-.23-.07-.47-.11-.71-.11-.21,0-.4.03-.57.08-.17.05-.32.15-.44.27-.16.16-.29.35-.37.57-.19.56-.27,1.16-.28,1.19h1.69c.14,0,.19.07.17.17l-.2,1.1c-.03.16-.18.15-.18.15h-1.75l-1.19,6.76c-.1.61-.26,1.2-.47,1.78-.19.49-.38.85-.69,1.19-.26.31-.6.54-.98.68-.37.13-.81.2-1.3.2-.23,0-.48,0-.78-.08-.16-.04-.33-.08-.49-.14-.06-.02-.12-.11-.08-.21.04-.1.35-.96.39-1.08.05-.14.19-.08.19-.08.09.04.16.07.28.09.13.03.3.05.43.05.23,0,.44-.03.62-.09.22-.07.35-.2.48-.37.14-.18.25-.43.37-.76.12-.33.22-.77.32-1.31l1.19-6.63h-1.17c-.14,0-.19-.07-.17-.17l.2-1.1c.03-.16.18-.15.18-.15h1.2l.06-.36c.18-1.06.54-1.87,1.06-2.4.53-.53,1.29-.81,2.24-.81.27,0,.52.02.72.06.2.04.35.07.52.13ZM34.97,55.34c0,.09-.06.16-.15.16h-1.4c-.09,0-.15-.07-.15-.16v-11.31c0-.09.06-.16.15-.16h1.41c.09,0,.15.07.15.16,0,0,0,11.31,0,11.31Z"/>
      </g>
    </g>
  </g>
</svg>