<?xml version="1.0" encoding="UTF-8"?>
<svg id="Capa_2" data-name="Capa 2" xmlns="http://www.w3.org/2000/svg" width="100" height="100" viewBox="0 0 100 100">
  <defs>
    <style>
      .cls-1 {
        fill: #00c8ff;
      }

      .cls-1, .cls-2 {
        stroke-width: 0px;
      }

      .cls-2 {
        fill: #00367b;
      }
    </style>
  </defs>
  <path class="cls-2" d="M82.5,78.42l-65.28-8.03-4.39-20.22L68.91,15.8l13.59,62.62ZM19.64,67.74l59.13,7.27-11.84-54.57-50.8,31.13,3.51,16.17Z"/>
  <path class="cls-1" d="M89.88,82.2l-2.82.61c-3.48.75-6.92-1.46-7.67-4.94l-13.08-60.29c-.75-3.48,1.46-6.92,4.94-7.68l2.82-.61c3.48-.75,6.92,1.46,7.68,4.94l13.08,60.29c.75,3.48-1.46,6.92-4.94,7.68ZM71.86,12.77c-1.9.41-3.11,2.3-2.7,4.2l13.08,60.29c.41,1.9,2.29,3.12,4.2,2.7l2.82-.61c1.9-.41,3.11-2.3,2.7-4.2l-13.08-60.29c-.41-1.9-2.3-3.11-4.2-2.7l-2.82.61Z"/>
  <path class="cls-1" d="M17.09,76.63l-1.65.36c-2.36.51-4.69-.99-5.2-3.35l-5.11-23.54c-.51-2.36.99-4.69,3.35-5.2l1.65-.36c2.36-.51,4.69.99,5.2,3.35l5.11,23.54c.51,2.36-.99,4.69-3.35,5.2ZM9.1,47.75c-.78.17-1.28.94-1.11,1.73l5.11,23.54c.17.78.94,1.28,1.73,1.11l1.65-.36c.78-.17,1.28-.94,1.11-1.72l-5.11-23.54c-.17-.78-.94-1.28-1.72-1.11l-1.65.36Z"/>
  <path class="cls-2" d="M59.51,86.59l-13.38,2.9c-2.47.54-4.92-1.04-5.46-3.51l-3.05-14.07,2.86-.62,3.05,14.07c.19.9,1.08,1.47,1.98,1.28l13.38-2.9c.9-.19,1.47-1.08,1.28-1.98l-1.58-7.26,2.86-.62,1.58,7.26c.54,2.47-1.04,4.92-3.51,5.46Z"/>
</svg>