<?xml version="1.0" encoding="UTF-8"?>
<svg id="Capa_3" data-name="Capa 3" xmlns="http://www.w3.org/2000/svg" viewBox="0 0 100 100">
  <defs>
    <style>
      .cls-1 {
        fill: none;
        stroke: #00c8ff;
        stroke-linecap: round;
        stroke-miterlimit: 10;
        stroke-width: 1.82px;
      }

      .cls-2 {
        fill: #00367b;
        stroke-width: 0px;
      }
    </style>
  </defs>
  <path class="cls-2" d="M78.97,81.38l-21.12-21.12c4.74-4.51,7.46-10.82,7.46-17.35,0-13.21-10.75-23.96-23.96-23.96s-23.96,10.75-23.96,23.96,10.75,23.96,23.96,23.96c5.19,0,10.12-1.64,14.28-4.73l21.3,21.3c.27.27.64.42,1.03.42s.75-.15,1.03-.42c.57-.57.57-1.48,0-2.05ZM62.4,42.9c0,11.61-9.45,21.06-21.06,21.06s-21.06-9.45-21.06-21.06,9.45-21.06,21.06-21.06,21.06,9.45,21.06,21.06Z"/>
  <path class="cls-1" d="M47.25,57.69c-1.96.85-4.12,1.33-6.4,1.33-8.86,0-16.04-7.18-16.04-16.04,0-6.39,3.73-11.9,9.13-14.48"/>
</svg>