<?xml version="1.0" encoding="UTF-8"?>
<svg id="Capa_3" data-name="Capa 3" xmlns="http://www.w3.org/2000/svg" viewBox="0 0 100 100">
  <defs>
    <style>
      .cls-1 {
        fill: #00367b;
      }

      .cls-1, .cls-2 {
        stroke-width: 0px;
      }

      .cls-2 {
        fill: #00c8ff;
      }
    </style>
  </defs>
  <path class="cls-1" d="M19.89,62.7c-1.83,0-3.47-1.01-4.29-2.64s-.65-3.55.44-5.01l19.22-25.88c2.07-2.17,4.57-2.47,6.46-.88,2.63,2.19,3.38,7.48-.01,12.2-.42.58-1.23.71-1.8.3-.58-.42-.71-1.22-.3-1.8,2.67-3.72,1.98-7.46.46-8.73-1.06-.87-2.13-.18-2.85.57l-19.11,25.75c-.51.69-.59,1.55-.2,2.32s1.13,1.22,1.98,1.22c.71,0,1.29.58,1.29,1.29s-.58,1.29-1.29,1.29Z"/>
  <g>
    <path class="cls-1" d="M32.71,75.52c-7.78,0-14.11-6.33-14.11-14.11s6.33-14.11,14.11-14.11,14.11,6.33,14.11,14.11-6.33,14.11-14.11,14.11ZM32.71,49.88c-6.36,0-11.53,5.17-11.53,11.53s5.17,11.53,11.53,11.53,11.53-5.17,11.53-11.53-5.17-11.53-11.53-11.53Z"/>
    <path class="cls-1" d="M65.56,75.52c-7.78,0-14.11-6.33-14.11-14.11s6.33-14.11,14.11-14.11,14.11,6.33,14.11,14.11-6.33,14.11-14.11,14.11ZM65.56,49.88c-6.36,0-11.53,5.17-11.53,11.53s5.17,11.53,11.53,11.53,11.53-5.17,11.53-11.53-5.17-11.53-11.53-11.53Z"/>
  </g>
  <path class="cls-1" d="M45.51,63.45c-.27,0-.54-.08-.77-.25-.57-.43-.69-1.23-.27-1.8,1.14-1.53,2.84-2.4,4.66-2.4s3.53.88,4.66,2.4c.43.57.3,1.38-.27,1.8-.57.43-1.38.3-1.8-.27-1.28-1.73-3.89-1.73-5.18,0-.25.34-.64.52-1.03.52Z"/>
  <path class="cls-1" d="M78.38,62.7c-.71,0-1.29-.58-1.29-1.29s.58-1.29,1.29-1.29c.86,0,1.6-.46,1.98-1.22s.31-1.63-.2-2.32l-19.22-25.88c-.61-.62-1.69-1.32-2.74-.44-1.52,1.27-2.21,5.01.45,8.73.42.58.28,1.38-.3,1.8-.58.41-1.38.28-1.8-.3-3.38-4.72-2.64-10.01-.01-12.2,1.89-1.58,4.38-1.28,6.36.76l19.33,26.01c1.09,1.46,1.25,3.38.43,5.01-.82,1.63-2.46,2.64-4.29,2.64Z"/>
  <path class="cls-2" d="M41.08,62.7c-.71,0-1.29-.58-1.29-1.29,0-3.9-3.18-7.08-7.08-7.08-.71,0-1.29-.58-1.29-1.29s.58-1.29,1.29-1.29c5.33,0,9.66,4.33,9.66,9.66,0,.71-.58,1.29-1.29,1.29Z"/>
  <path class="cls-2" d="M74.25,62.7c-.71,0-1.29-.58-1.29-1.29,0-3.9-3.18-7.08-7.08-7.08-.71,0-1.29-.58-1.29-1.29s.58-1.29,1.29-1.29c5.33,0,9.66,4.33,9.66,9.66,0,.71-.58,1.29-1.29,1.29Z"/>
</svg>