<?xml version="1.0" encoding="UTF-8"?>
<svg id="Capa_3" data-name="Capa 3" xmlns="http://www.w3.org/2000/svg" viewBox="0 0 100 100">
  <defs>
    <style>
      .cls-1 {
        fill: #00367b;
      }

      .cls-1, .cls-2 {
        stroke-width: 0px;
      }

      .cls-2 {
        fill: #00c8ff;
      }
    </style>
  </defs>
  <path class="cls-1" d="M62.49,42.43c-.76.47-.99,1.46-.53,2.22,3.38,5.46,3.1,12.35-.7,17.55-5.12,6.99-14.96,8.53-21.95,3.41-3.39-2.48-5.61-6.13-6.25-10.29-.64-4.15.37-8.3,2.85-11.68,3.8-5.18,10.27-7.53,16.5-5.96.87.21,1.74-.31,1.96-1.17.21-.86-.31-1.74-1.17-1.96-7.49-1.87-15.31.93-19.88,7.18-2.99,4.08-4.21,9.08-3.44,14.07.77,5,3.45,9.4,7.53,12.4,3.36,2.46,7.26,3.64,11.14,3.64,5.84,0,11.6-2.69,15.31-7.75,4.58-6.26,4.91-14.55.85-21.14-.47-.76-1.46-.98-2.22-.53Z"/>
  <path class="cls-2" d="M43.32,49.06c-2.13,2.91-1.5,6.99,1.41,9.12,2.91,2.13,6.99,1.5,9.12-1.41,1.8-2.46,1.61-5.74-.25-7.99l-3.72,5.08c-.31.43-.8.66-1.3.66-.33,0-.66-.1-.95-.31-.72-.53-.87-1.53-.35-2.25l3.72-5.08c-2.7-1.09-5.89-.28-7.69,2.18Z"/>
  <path class="cls-1" d="M81.12,19.54c-.38-.56-1.07-.84-1.73-.66l-6.93,1.76-.76-7.45c-.07-.66-.53-1.22-1.18-1.39-.63-.17-1.33.07-1.72.6l-9.23,12.61c-12.67-5.03-27.06-.92-35.19,10.18-9.77,13.35-6.86,32.16,6.49,41.93,5.32,3.9,11.51,5.77,17.66,5.77,9.25,0,18.38-4.25,24.25-12.28,8.11-11.09,7.69-26.03-.92-36.63l9.22-12.59c.4-.55.42-1.29.03-1.85ZM67.88,33.99l-6.36,1.62-.69-6.84,8.1-11.07.53,5.14c.05.47.3.89.68,1.16.38.26.87.35,1.32.24l4.39-1.12-7.96,10.87ZM70.19,68.72c-8.73,11.91-25.51,14.51-37.41,5.8-5.77-4.23-9.56-10.45-10.65-17.51s.63-14.14,4.86-19.92c7.1-9.7,19.54-13.42,30.69-9.36-.09.24-.15.48-.12.74l.84,8.31-7.39,10.09-3.72,5.08c-.53.72-.37,1.72.35,2.25.29.21.62.31.95.31.49,0,.98-.23,1.3-.66l3.72-5.08,7.05-9.63,8.58-2.19c.23-.06.43-.18.61-.33,7.22,9.41,7.43,22.4.34,32.09Z"/>
</svg>