<?xml version="1.0" encoding="UTF-8"?>
<svg id="Capa_3" data-name="Capa 3" xmlns="http://www.w3.org/2000/svg" xmlns:xlink="http://www.w3.org/1999/xlink" viewBox="0 0 100 100">
  <defs>
    <style>
      .cls-1 {
        fill: none;
      }

      .cls-1, .cls-2, .cls-3 {
        stroke-width: 0px;
      }

      .cls-4 {
        mask: url(#mask);
      }

      .cls-5 {
        filter: url(#luminosity-noclip);
      }

      .cls-3 {
        fill: #00377d;
      }
    </style>
    <filter id="luminosity-noclip" x="5.84" y="26.35" width="84.63" height="50.95" color-interpolation-filters="sRGB" filterUnits="userSpaceOnUse">
      <feFlood flood-color="#fff" result="bg"/>
      <feBlend in="SourceGraphic" in2="bg"/>
    </filter>
    <mask id="mask" x="5.84" y="26.35" width="84.63" height="50.95" maskUnits="userSpaceOnUse">
      <g class="cls-5">
        <ellipse class="cls-2" cx="27.3" cy="55.57" rx="21.45" ry="21.73"/>
      </g>
    </mask>
  </defs>
  <g class="cls-4">
    <g>
      <path class="cls-3" d="M64.62,65.52c-3.81,0-7.29-1.48-9.82-4.17-2.53-2.7-3.79-6.29-3.55-10.1.5-7.85,7.29-14.23,15.14-14.23,4.39,0,8.35,1.98,10.86,5.43l-.55.4c-2.38-3.27-6.13-5.15-10.31-5.15-7.49,0-13.98,6.1-14.46,13.59-.23,3.63.96,7.03,3.36,9.59,2.39,2.55,5.7,3.96,9.32,3.96,4.54,0,8.97-2.32,11.72-6.09h-9.26v-.68h10.54l-.35.53c-2.88,4.34-7.61,6.92-12.66,6.92Z"/>
      <path class="cls-3" d="M64.51,67.28c-4.28,0-8.2-1.67-11.03-4.69-2.84-3.03-4.26-7.06-3.99-11.35.56-8.82,8.2-16,17.02-16,5.41,0,10.25,2.7,12.94,7.23l-.59.35c-2.57-4.32-7.19-6.89-12.35-6.89-8.47,0-15.8,6.89-16.34,15.36-.26,4.1,1.09,7.95,3.8,10.84,2.71,2.88,6.45,4.47,10.53,4.47,6.28,0,12.19-3.86,14.88-9.66h-12.09v-.68h13.13l-.2.47c-2.69,6.31-9.01,10.55-15.72,10.55Z"/>
      <path class="cls-3" d="M64.4,69.05c-4.75,0-9.1-1.85-12.25-5.21-3.16-3.37-4.73-7.84-4.42-12.6.63-9.8,9.11-17.77,18.9-17.77,6.39,0,12.1,3.45,14.91,9.02l-.61.31c-2.69-5.33-8.17-8.64-14.3-8.64-9.44,0-17.62,7.68-18.22,17.13-.29,4.57,1.21,8.87,4.24,12.09,3.02,3.22,7.19,4.99,11.75,4.99,7.94,0,15.24-5.54,17.53-13.23h-17.1v-.68h18l-.12.43c-2.22,8.21-9.91,14.16-18.31,14.16Z"/>
      <path class="cls-3" d="M64.29,70.82c-5.22,0-10-2.03-13.46-5.72-3.47-3.7-5.2-8.62-4.86-13.86.69-10.77,10.01-19.53,20.78-19.53,7.44,0,13.89,4.14,16.81,10.8l-.62.27c-2.81-6.41-9.01-10.39-16.18-10.39-10.42,0-19.44,8.48-20.1,18.9-.32,5.04,1.34,9.78,4.68,13.35,3.33,3.55,7.94,5.51,12.97,5.51,4.75,0,9.4-1.77,13.1-4.98,3.57-3.1,5.96-7.29,6.75-11.82h-16.6v-.68h17.4l-.06.39c-.74,4.84-3.24,9.32-7.04,12.62-3.82,3.32-8.63,5.15-13.54,5.15Z"/>
      <path class="cls-3" d="M64.17,72.59c-5.69,0-10.9-2.22-14.68-6.24-3.78-4.03-5.67-9.4-5.3-15.11.75-11.75,10.92-21.3,22.66-21.3,8.38,0,15.7,4.94,18.66,12.58l-.64.25c-2.86-7.38-9.93-12.14-18.02-12.14-11.39,0-21.26,9.27-21.98,20.66-.35,5.52,1.47,10.7,5.12,14.6,3.64,3.88,8.68,6.02,14.18,6.02,11.29,0,21.08-9.11,21.96-20.37h-26.91v-.68h27.64l-.02.43c-.75,11.75-10.92,21.3-22.66,21.3Z"/>
      <path class="cls-3" d="M64.06,74.35c-6.16,0-11.81-2.4-15.89-6.75-4.1-4.37-6.14-10.18-5.74-16.36.81-12.72,11.82-23.07,24.55-23.07,9.42,0,17.46,5.64,20.48,14.36l-.64.22c-2.92-8.44-10.7-13.9-19.83-13.9-12.37,0-23.07,10.06-23.86,22.43-.38,5.99,1.59,11.62,5.56,15.85,3.96,4.22,9.42,6.54,15.4,6.54,12.37,0,23.07-10.06,23.86-22.43.03-.49.05-1,.05-1.51h-20.21v-.68h20.88v.34c.02.64,0,1.27-.04,1.9-.81,12.72-11.82,23.07-24.55,23.07Z"/>
      <path class="cls-3" d="M63.94,76.18c-6.65,0-12.74-2.59-17.15-7.29-4.42-4.71-6.62-10.98-6.19-17.65.88-13.73,12.76-24.89,26.48-24.89,5.18,0,10.04,1.57,14.07,4.55,3.94,2.91,6.79,6.94,8.26,11.64l-.65.2c-1.42-4.57-4.19-8.47-8.01-11.3-3.91-2.89-8.63-4.42-13.66-4.42-13.37,0-24.95,10.88-25.8,24.25-.41,6.48,1.72,12.56,6.01,17.14,4.28,4.56,10.19,7.07,16.65,7.07,13.37,0,24.95-10.88,25.8-24.25.07-1.1.07-2.22-.01-3.31h-21.85v-.68h22.48l.03.31c.11,1.23.12,2.48.04,3.72-.88,13.73-12.76,24.89-26.48,24.89Z"/>
    </g>
  </g>
  <g>
    <path class="cls-1" d="M15.11,47.66c-.6.81-1.13,1.67-1.58,2.56l-.24,1.17h.89c.09-.21.19-.42.29-.63l.64-3.1Z"/>
    <path class="cls-1" d="M13.52,46.88c-.69.96-1.29,1.98-1.79,3.04l-.3,1.47h.84c.19-.47.39-.94.62-1.4l.64-3.12Z"/>
    <path class="cls-1" d="M16.89,51.39h0s1.06,0,1.06,0l.47-2.3c-.59.71-1.1,1.48-1.53,2.3Z"/>
    <path class="cls-1" d="M19.32,48.11l-.44,2.12c.46-.62.98-1.19,1.55-1.71l.33-1.66c-.51.38-.99.8-1.44,1.25Z"/>
    <path class="cls-1" d="M20.08,44.36c.44-.29.88-.56,1.34-.8l.27-1.35c-.44.21-.88.44-1.31.7l-.3,1.46Z"/>
    <path class="cls-1" d="M19.89,45.34l-.33,1.63c.44-.38.91-.74,1.4-1.08,0,0,0,0,0,0l.29-1.44c-.38.23-.76.47-1.13.73-.08.06-.15.11-.23.17Z"/>
    <path class="cls-1" d="M21.86,41.38l.26-1.27c-.43.17-.86.36-1.28.57l-.28,1.34c.43-.23.86-.44,1.3-.64Z"/>
    <path class="cls-1" d="M17.74,47.23l-.46,2.23c.42-.59.89-1.16,1.41-1.68l.37-1.79c-.46.39-.9.81-1.32,1.24Z"/>
    <path class="cls-1" d="M19.85,51.39l.33-1.67c-.47.51-.9,1.07-1.27,1.67h.94Z"/>
    <path class="cls-1" d="M19.27,44.94l.32-1.54c-.23.15-.45.3-.67.46-.2.14-.39.29-.58.44l-.35,1.71c.41-.38.84-.74,1.28-1.08Z"/>
    <path class="cls-1" d="M19.78,42.48l.29-1.4c-.41.22-.81.47-1.21.72l-.31,1.5c.4-.29.81-.57,1.23-.82Z"/>
    <path class="cls-1" d="M17.72,43.93l.32-1.58c-.12.09-.24.17-.36.26-.35.26-.69.54-1.02.82l-.37,1.79c.45-.45.92-.88,1.42-1.29Z"/>
    <path class="cls-1" d="M15.41,46.19l.4-1.97c-.47.46-.92.94-1.35,1.45l-.5,2.44c.44-.67.92-1.31,1.44-1.92Z"/>
    <path class="cls-1" d="M16.04,46.5l-.49,2.37c.47-.7.99-1.35,1.56-1.97l.38-1.88c-.51.46-1,.96-1.45,1.48Z"/>
    <path class="cls-1" d="M16.83,48.28c-.66.84-1.23,1.74-1.7,2.7l-.08.41h1.08c.04-.08.08-.15.11-.23l.59-2.88Z"/>
    <path class="cls-3" d="M17.11,23.91h28.03v-.68h-28.58l-5.48,26.48c.33-.71.71-1.41,1.13-2.08l4.9-23.71Z"/>
    <path class="cls-3" d="M11.11,51.39h.32l.3-1.47c-.23.48-.43.97-.62,1.47Z"/>
    <path class="cls-3" d="M18.55,25.73h26.47v-.68h-27.03l-4.16,20.32c.29-.35.59-.69.91-1.02l3.81-18.61Z"/>
    <path class="cls-3" d="M13,51.39h.29l.24-1.17c-.19.38-.37.78-.53,1.17Z"/>
    <path class="cls-3" d="M13.96,48.11l.5-2.44c-.33.39-.65.8-.94,1.21l-.64,3.12c.32-.65.68-1.28,1.08-1.89Z"/>
    <path class="cls-3" d="M14.93,51.39h.11l.08-.41c-.07.14-.13.27-.2.41Z"/>
    <path class="cls-3" d="M19.93,27.52h19.9v-.68h-20.45l-3.33,16.24c.27-.24.55-.47.84-.7l3.04-14.85Z"/>
    <path class="cls-3" d="M16.3,45.22l.37-1.79c-.29.25-.58.51-.86.78l-.4,1.97c.29-.33.58-.66.89-.97Z"/>
    <path class="cls-3" d="M16.04,46.5c-.33.37-.64.76-.93,1.16l-.64,3.1c.32-.65.68-1.28,1.08-1.89l.49-2.37Z"/>
    <path class="cls-3" d="M17.74,47.23c-.32.34-.62.69-.91,1.05l-.59,2.88c.31-.59.66-1.17,1.05-1.71l.46-2.23Z"/>
    <path class="cls-3" d="M17.11,46.9c.28-.3.57-.6.88-.88l.35-1.71c-.29.23-.57.47-.84.71l-.38,1.88Z"/>
    <polygon class="cls-3" points="16.89 51.39 16.89 51.39 16.89 51.39 16.89 51.39"/>
    <path class="cls-3" d="M18.52,43.32s.02-.01.03-.02l.31-1.5c-.27.18-.54.36-.81.55l-.32,1.58c.26-.21.53-.42.8-.62Z"/>
    <path class="cls-3" d="M21.41,29.32h23.38v-.68h-23.94l-2.61,12.75c.26-.18.53-.34.8-.51l2.37-11.56Z"/>
    <path class="cls-3" d="M19.78,42.48c.26-.16.52-.31.79-.46l.28-1.34c-.26.13-.52.26-.78.4l-.29,1.4Z"/>
    <path class="cls-3" d="M18.88,50.24l.44-2.12c-.32.31-.62.64-.9.98l-.47,2.3h.17c.23-.4.49-.79.76-1.16Z"/>
    <path class="cls-3" d="M22.8,31.12h24.3v-.68h-24.86l-2,9.77c.26-.13.51-.26.77-.37l1.79-8.72Z"/>
    <path class="cls-3" d="M18.69,47.78c.28-.28.56-.55.86-.81l.33-1.63c-.28.21-.56.43-.83.65l-.37,1.79Z"/>
    <path class="cls-3" d="M19.27,44.94c.15-.11.3-.22.45-.33.12-.08.24-.17.36-.25l.3-1.46c-.27.16-.54.33-.8.5l-.32,1.54Z"/>
    <path class="cls-3" d="M24.25,32.92h20.3v-.68h-20.86l-1.42,7.07c.25-.09.5-.18.75-.26l1.23-6.13Z"/>
    <path class="cls-3" d="M20.76,46.86l-.33,1.66c.27-.25.55-.48.84-.71l.3-1.52c-.08.05-.16.1-.24.15-.19.13-.38.27-.57.41Z"/>
    <path class="cls-3" d="M21.42,43.56c.26-.14.51-.27.77-.39l.26-1.3c-.26.11-.51.22-.76.34l-.27,1.35Z"/>
    <path class="cls-3" d="M20.96,45.88c.26-.18.53-.34.8-.5l.28-1.37c-.26.13-.52.28-.78.43l-.29,1.44Z"/>
    <path class="cls-3" d="M21.86,41.38c.25-.11.5-.22.76-.31l.25-1.24c-.25.09-.5.18-.75.28l-.26,1.27Z"/>
    <path class="cls-3" d="M20.19,49.73l-.33,1.67h.29c.17-.24.35-.47.54-.7l.37-1.82c-.3.27-.59.55-.87.85Z"/>
    <path class="cls-3" d="M21,51.39c1.81-2.28,4.56-3.65,7.42-3.65,2.36,0,4.53.92,6.09,2.58,1.57,1.67,2.35,3.9,2.2,6.27-.31,4.91-4.56,8.9-9.46,8.9-3.36,0-6.28-1.87-7.6-4.87l-.62.27c1.43,3.25,4.58,5.28,8.22,5.28,5.26,0,9.81-4.28,10.15-9.53.16-2.56-.68-4.97-2.38-6.78-1.69-1.81-4.03-2.8-6.59-2.8-2.95,0-5.79,1.37-7.73,3.64l-.14.7h.45Z"/>
    <path class="cls-3" d="M20.55,51.39l.14-.7c-.19.22-.37.45-.54.7h.41Z"/>
    <path class="cls-3" d="M20.55,51.39l.14-.7c-.19.22-.37.45-.54.7h.41Z"/>
    <path class="cls-3" d="M28.53,45.99c2.83,0,5.42,1.1,7.29,3.1,1.88,2,2.81,4.67,2.63,7.51-.38,5.87-5.46,10.65-11.33,10.65-4.33,0-8.02-2.59-9.4-6.6l-.64.22c.71,2.06,2.02,3.82,3.78,5.08,1.8,1.29,3.97,1.98,6.27,1.98,6.22,0,11.61-5.06,12.01-11.29.19-3.03-.81-5.88-2.82-8.02-2-2.14-4.77-3.31-7.79-3.31-2.63,0-5.19.92-7.26,2.52l-.21,1.06c2.06-1.82,4.72-2.89,7.48-2.89Z"/>
    <path class="cls-3" d="M18.88,50.24l-.24,1.16h.27c.38-.6.8-1.15,1.27-1.67l.24-1.2c-.56.52-1.08,1.09-1.55,1.71Z"/>
    <path class="cls-3" d="M18.64,51.39l.24-1.16c-.28.37-.53.76-.76,1.16h.53Z"/>
    <path class="cls-3" d="M18.64,51.39l.24-1.16c-.28.37-.53.76-.76,1.16h.53Z"/>
    <path class="cls-3" d="M20.19,49.73c.27-.3.56-.58.87-.85l.21-1.06c-.29.22-.57.46-.84.71l-.24,1.2Z"/>
    <path class="cls-3" d="M20.19,49.73c.27-.3.56-.58.87-.85l.21-1.06c-.29.22-.57.46-.84.71l-.24,1.2Z"/>
    <path class="cls-3" d="M28.64,44.18c3.31,0,6.34,1.29,8.53,3.62,2.2,2.34,3.29,5.46,3.08,8.79-.44,6.87-6.38,12.45-13.25,12.45-5.3,0-9.81-3.37-11.2-8.38l-.66.18c1.48,5.31,6.25,8.88,11.86,8.88,7.22,0,13.47-5.87,13.93-13.09.22-3.51-.93-6.81-3.26-9.3-2.32-2.48-5.53-3.84-9.03-3.84-2.41,0-4.77.65-6.89,1.88l-.18.91c2.14-1.38,4.58-2.12,7.07-2.12Z"/>
    <path class="cls-3" d="M19.55,46.96l-.24,1.15c.45-.45.93-.87,1.44-1.25l.2-.98s0,0,0,0c-.49.33-.96.69-1.4,1.08Z"/>
    <path class="cls-3" d="M16.24,51.17c-.04.08-.08.15-.11.23h.07l.05-.23Z"/>
    <path class="cls-3" d="M17.28,49.46l-.4,1.94c.43-.82.95-1.59,1.53-2.3l.27-1.32c-.51.52-.98,1.09-1.41,1.68Z"/>
    <path class="cls-3" d="M16.24,51.17l-.05.23h.7s0,0,0,0l.4-1.94c-.39.54-.74,1.11-1.05,1.71Z"/>
    <path class="cls-3" d="M16.24,51.17l-.05.23h.7s0,0,0,0l.4-1.94c-.39.54-.74,1.11-1.05,1.71Z"/>
    <path class="cls-3" d="M18.69,47.78l-.27,1.32c.28-.34.58-.67.9-.98l.24-1.15c-.3.26-.59.53-.86.81Z"/>
    <path class="cls-3" d="M18.69,47.78l-.27,1.32c.28-.34.58-.67.9-.98l.24-1.15c-.3.26-.59.53-.86.81Z"/>
    <path class="cls-3" d="M20.76,46.86c.19-.14.38-.28.57-.41.08-.05.16-.1.24-.15l.18-.91c-.27.16-.53.32-.8.5l-.2.98Z"/>
    <path class="cls-3" d="M20.76,46.86c.19-.14.38-.28.57-.41.08-.05.16-.1.24-.15l.18-.91c-.27.16-.53.32-.8.5l-.2.98Z"/>
    <path class="cls-3" d="M19.89,45.34c.08-.06.15-.11.23-.17.37-.26.75-.5,1.13-.73l.18-.88c-.46.24-.9.51-1.34.8l-.2.97Z"/>
    <path class="cls-3" d="M15.55,48.88l-.43,2.11c.47-.96,1.04-1.86,1.7-2.7l.28-1.38c-.57.62-1.09,1.28-1.56,1.97Z"/>
    <path class="cls-3" d="M28.76,42.38c3.79,0,7.26,1.47,9.77,4.15,2.52,2.68,3.77,6.26,3.53,10.06-.5,7.86-7.31,14.26-15.17,14.26-3.13,0-6.03-1-8.4-2.88-2.29-1.82-3.91-4.41-4.58-7.29l-.66.15c.7,3.03,2.41,5.75,4.82,7.67,2.49,1.98,5.54,3.03,8.82,3.03,8.21,0,15.32-6.68,15.85-14.89.26-3.99-1.06-7.75-3.71-10.57-2.64-2.82-6.29-4.37-10.27-4.37-2.27,0-4.5.5-6.56,1.47l-.17.84c2.1-1.07,4.39-1.63,6.73-1.63Z"/>
    <path class="cls-3" d="M14.47,50.76c-.1.21-.2.42-.29.63h.16l.13-.63Z"/>
    <path class="cls-3" d="M17.74,47.23c.41-.44.85-.85,1.32-1.24l.21-1.04c-.45.34-.88.7-1.28,1.08l-.25,1.21Z"/>
    <path class="cls-3" d="M14.47,50.76l-.13.63h.58c.06-.14.13-.27.2-.41l.43-2.11c-.4.6-.76,1.23-1.08,1.89Z"/>
    <path class="cls-3" d="M14.47,50.76l-.13.63h.58c.06-.14.13-.27.2-.41l.43-2.11c-.4.6-.76,1.23-1.08,1.89Z"/>
    <path class="cls-3" d="M17.99,46.03c-.3.28-.6.58-.88.88l-.28,1.38c.29-.36.59-.71.91-1.05l.25-1.21Z"/>
    <path class="cls-3" d="M17.99,46.03c-.3.28-.6.58-.88.88l-.28,1.38c.29-.36.59-.71.91-1.05l.25-1.21Z"/>
    <path class="cls-3" d="M19.27,44.94l-.21,1.04c.27-.23.54-.44.83-.65l.2-.97c-.12.08-.24.16-.36.25-.15.11-.3.22-.45.33Z"/>
    <path class="cls-3" d="M19.27,44.94l-.21,1.04c.27-.23.54-.44.83-.65l.2-.97c-.12.08-.24.16-.36.25-.15.11-.3.22-.45.33Z"/>
    <path class="cls-3" d="M21.25,44.44c.26-.15.52-.29.78-.43l.17-.84c-.26.12-.52.25-.77.39l-.18.88Z"/>
    <path class="cls-3" d="M21.25,44.44c.26-.15.52-.29.78-.43l.17-.84c-.26.12-.52.25-.77.39l-.18.88Z"/>
    <path class="cls-3" d="M13.96,48.11l-.43,2.11c.45-.89.98-1.75,1.58-2.56l.3-1.47c-.52.61-1.01,1.25-1.44,1.92Z"/>
    <path class="cls-3" d="M20.38,42.91c.43-.25.87-.48,1.31-.7l.17-.83c-.44.19-.87.41-1.3.64l-.18.89Z"/>
    <path class="cls-3" d="M17.49,45.03l.22-1.09c-.49.4-.97.83-1.42,1.29l-.26,1.28c.45-.52.94-1.01,1.45-1.48Z"/>
    <path class="cls-3" d="M28.88,40.57c4.27,0,8.19,1.66,11.02,4.68,2.84,3.03,4.25,7.05,3.98,11.34-.57,8.86-8.23,16.06-17.09,16.06-7.29,0-13.35-4.92-14.74-11.96l-.67.13c1.45,7.37,7.78,12.52,15.41,12.52,4.46,0,8.77-1.74,12.13-4.89,3.36-3.15,5.36-7.35,5.65-11.81.29-4.48-1.19-8.69-4.16-11.85-2.96-3.16-7.05-4.89-11.52-4.89-2.15,0-4.26.4-6.26,1.18l-.16.8c2.04-.85,4.2-1.29,6.42-1.29Z"/>
    <path class="cls-3" d="M12.88,50c-.23.46-.43.92-.62,1.4h.33l.29-1.4Z"/>
    <path class="cls-3" d="M18.34,44.31c.19-.15.38-.3.58-.44.22-.16.44-.31.67-.46l.19-.93c-.42.26-.83.53-1.23.82l-.21,1.01Z"/>
    <path class="cls-3" d="M12.88,50l-.29,1.4h.4c.16-.4.34-.79.53-1.17l.43-2.11c-.4.61-.76,1.24-1.08,1.89Z"/>
    <path class="cls-3" d="M12.88,50l-.29,1.4h.4c.16-.4.34-.79.53-1.17l.43-2.11c-.4.61-.76,1.24-1.08,1.89Z"/>
    <path class="cls-3" d="M16.3,45.22c-.31.31-.61.64-.89.97l-.3,1.47c.29-.4.61-.78.93-1.16l.26-1.28Z"/>
    <path class="cls-3" d="M16.3,45.22c-.31.31-.61.64-.89.97l-.3,1.47c.29-.4.61-.78.93-1.16l.26-1.28Z"/>
    <path class="cls-3" d="M18.34,44.31l.21-1.01s-.02.01-.03.02c-.27.2-.54.4-.8.62l-.22,1.09c.27-.25.55-.49.84-.71Z"/>
    <path class="cls-3" d="M18.34,44.31l.21-1.01s-.02.01-.03.02c-.27.2-.54.4-.8.62l-.22,1.09c.27-.25.55-.49.84-.71Z"/>
    <path class="cls-3" d="M20.38,42.91l.18-.89c-.27.14-.53.3-.79.46l-.19.93c.26-.17.53-.34.8-.5Z"/>
    <path class="cls-3" d="M20.38,42.91l.18-.89c-.27.14-.53.3-.79.46l-.19.93c.26-.17.53-.34.8-.5Z"/>
    <path class="cls-3" d="M21.69,42.21c.25-.12.51-.24.76-.34l.16-.8c-.25.1-.51.2-.76.31l-.17.83Z"/>
    <path class="cls-3" d="M21.69,42.21c.25-.12.51-.24.76-.34l.16-.8c-.25.1-.51.2-.76.31l-.17.83Z"/>
    <path class="cls-3" d="M28.99,38.78c4.75,0,9.11,1.85,12.25,5.2,3.16,3.37,4.73,7.85,4.42,12.61-.63,9.85-9.15,17.86-19,17.86-4.11,0-7.88-1.36-10.9-3.92-2.94-2.49-4.92-5.98-5.57-9.83l-.67.11c.68,4.01,2.74,7.64,5.8,10.24,3.11,2.63,7.14,4.08,11.34,4.08,4.94,0,9.71-1.92,13.43-5.42,3.72-3.49,5.94-8.14,6.25-13.08.32-4.96-1.32-9.62-4.61-13.12-3.28-3.49-7.81-5.42-12.75-5.42-2.04,0-4.05.32-5.97.96l-.16.77c1.96-.69,4.02-1.05,6.12-1.05Z"/>
    <path class="cls-3" d="M20.84,40.68c.42-.21.85-.4,1.28-.57l.16-.79c-.43.16-.85.33-1.26.52l-.17.84Z"/>
    <path class="cls-3" d="M13.52,46.88l.31-1.52c-.59.72-1.14,1.48-1.63,2.26l-.48,2.3c.5-1.06,1.1-2.08,1.79-3.04Z"/>
    <path class="cls-3" d="M17.68,42.62c.12-.09.24-.18.36-.26l.2-.97c-.33.22-.65.45-.96.68-.13.1-.26.2-.39.3l-.22,1.06c.33-.28.67-.56,1.02-.82Z"/>
    <path class="cls-3" d="M20.06,41.08l.18-.87c-.41.21-.81.43-1.2.67l-.19.92c.4-.26.8-.5,1.21-.72Z"/>
    <path class="cls-3" d="M15.81,44.22l.24-1.15c-.46.4-.89.83-1.31,1.27l-.27,1.33c.42-.5.87-.99,1.35-1.45Z"/>
    <path class="cls-3" d="M11.08,49.71c-.26.55-.49,1.12-.69,1.69h.34l.35-1.69Z"/>
    <path class="cls-3" d="M11.11,51.39c.19-.5.39-.99.62-1.47l.48-2.3c-.42.67-.79,1.37-1.13,2.08l-.35,1.69h.38Z"/>
    <path class="cls-3" d="M11.11,51.39c.19-.5.39-.99.62-1.47l.48-2.3c-.42.67-.79,1.37-1.13,2.08l-.35,1.69h.38Z"/>
    <path class="cls-3" d="M14.46,45.67l.27-1.33c-.31.33-.62.67-.91,1.02l-.31,1.52c.3-.42.61-.82.94-1.21Z"/>
    <path class="cls-3" d="M14.46,45.67l.27-1.33c-.31.33-.62.67-.91,1.02l-.31,1.52c.3-.42.61-.82.94-1.21Z"/>
    <path class="cls-3" d="M16.67,43.44l.22-1.06c-.29.23-.57.46-.84.7l-.24,1.15c.28-.27.56-.53.86-.78Z"/>
    <path class="cls-3" d="M16.67,43.44l.22-1.06c-.29.23-.57.46-.84.7l-.24,1.15c.28-.27.56-.53.86-.78Z"/>
    <path class="cls-3" d="M18.85,41.8l.19-.92c-.27.16-.54.33-.8.51l-.2.97c.27-.19.54-.37.81-.55Z"/>
    <path class="cls-3" d="M18.85,41.8l.19-.92c-.27.16-.54.33-.8.51l-.2.97c.27-.19.54-.37.81-.55Z"/>
    <path class="cls-3" d="M20.84,40.68l.17-.84c-.26.12-.52.24-.77.37l-.18.87c.26-.14.52-.28.78-.4Z"/>
    <path class="cls-3" d="M20.84,40.68l.17-.84c-.26.12-.52.24-.77.37l-.18.87c.26-.14.52-.28.78-.4Z"/>
    <path class="cls-3" d="M22.87,39.82l.16-.77c-.25.08-.5.17-.75.26l-.16.79c.25-.1.5-.19.75-.28Z"/>
    <path class="cls-3" d="M22.87,39.82l.16-.77c-.25.08-.5.17-.75.26l-.16.79c.25-.1.5-.19.75-.28Z"/>
  </g>
</svg>