<?xml version="1.0" encoding="UTF-8"?>
<svg id="Capa_2" data-name="Capa 2" xmlns="http://www.w3.org/2000/svg" width="77.76" height="77.2" viewBox="0 0 77.76 77.2">
  <defs>
    <style>
      .cls-1 {
        fill: #00367b;
      }

      .cls-1, .cls-2 {
        stroke-width: 0px;
      }

      .cls-2 {
        fill: #00c8ff;
      }
    </style>
  </defs>
  <g id="Capa_3" data-name="Capa 3">
    <g>
      <path class="cls-2" d="M67.22,67.85c.97-.97.97-2.55,0-3.53-.98-.98-2.56-.98-3.53,0-.98.98-.98,2.56,0,3.53s2.55.97,3.53,0Z"/>
      <path class="cls-1" d="M68.37,17.81c.39-.06.72-.28.94-.58l8.21-11.59c.39-.53.3-1.28-.17-1.77l-3.47-3.47c-.47-.47-1.22-.53-1.77-.14l-11.59,8.21c-.3.22-.53.55-.58.91l-.42,2.97-17.88,17.88-7.46-7.46c1.69-6.02,0-12.59-4.44-17.05C24.67.65,16.88-.8,10.33,2.11c-.5.22-.86.69-.94,1.22-.11.55.06,1.08.44,1.47l9.68,9.7v2.74l-2.88,2.88h-2.77L4.18,10.46c-.39-.39-.94-.55-1.47-.44-.53.08-1,.44-1.22.94C-1.42,17.5.02,25.29,5.09,30.37c4.49,4.49,10.92,6.16,17,4.46l4.41,4.41c-.97.44-1.86,1-2.63,1.8L2.15,62.73c-1.03,1.05-1.61,2.41-1.61,3.88s.58,2.86,1.61,3.88l5.1,5.1c1.08,1.08,2.47,1.61,3.88,1.61s2.83-.53,3.88-1.61l21.71-21.68c.78-.78,1.36-1.69,1.8-2.63l21.4,21.35c1.64,1.64,3.77,2.47,5.93,2.47s4.3-.83,5.93-2.47l.19-.19c1.58-1.58,2.47-3.69,2.47-5.93s-.89-4.35-2.47-5.93l-24.45-24.45,17.86-17.88,2.97-.42ZM62.6,10.38l10.15-7.18,1.83,1.8-7.21,10.15-1.97.31-3.08-3.08.28-2ZM23.73,31.78c-.3-.33-.75-.5-1.16-.5-.19,0-.39.03-.55.08-5.13,1.77-10.7.5-14.56-3.35-3.49-3.49-4.85-8.6-3.72-13.31l8.26,8.29c.31.3.75.47,1.19.47h4.13c.44,0,.86-.17,1.16-.47l3.88-3.85c.31-.33.47-.75.47-1.19v-4.13c0-.44-.17-.86-.47-1.19L14.08,4.36c4.71-1.14,9.82.22,13.31,3.71,3.8,3.8,5.1,9.54,3.35,14.61-.22.61-.06,1.28.39,1.72l8.18,8.18-6.27,6.24c-.89-.28-1.8-.44-2.72-.44l-6.6-6.6ZM34.37,51.55l-21.71,21.71c-.83.83-2.22.83-3.05,0l-5.1-5.13c-.42-.39-.64-.94-.64-1.53s.22-1.11.64-1.53l21.71-21.71c1.11-1.11,2.61-1.66,4.08-1.66s2.94.55,4.08,1.66c1.08,1.11,1.69,2.55,1.69,4.08s-.61,2.99-1.69,4.1ZM69.64,62.92c.97.94,1.5,2.22,1.5,3.58s-.53,2.61-1.5,3.58l-.19.22c-1.97,1.97-5.18,1.97-7.18-.03l-22.87-22.85c0-.94-.19-1.83-.47-2.72l6.27-6.24,24.46,24.45ZM37.62,42.1c-.28-.36-.55-.72-.89-1.05v-.03c-.33-.33-.72-.58-1.08-.86l25.26-25.29,1.97,1.97-25.26,25.26Z"/>
    </g>
  </g>
</svg>