<?xml version="1.0" encoding="UTF-8"?>
<svg id="Capa_2" data-name="Capa 2" xmlns="http://www.w3.org/2000/svg" width="83.58" height="68.65" viewBox="0 0 83.58 68.65">
  <defs>
    <style>
      .cls-1 {
        fill: #00367b;
      }

      .cls-1, .cls-2 {
        stroke-width: 0px;
      }

      .cls-2 {
        fill: #00c8ff;
      }
    </style>
  </defs>
  <g id="Capa_3" data-name="Capa 3">
    <g>
      <g>
        <path class="cls-1" d="M80.65,22.04c.79,0,1.42-.64,1.42-1.42V5.12c0-2.82-2.3-5.12-5.12-5.12H5.12C2.29,0,0,2.3,0,5.12v48.69c0,2.82,2.29,5.12,5.12,5.12h35.27v6.87H3.32c-.75,0-1.4.57-1.47,1.29-.04.4.09.8.36,1.1.27.3.65.47,1.05.47h75.47c.75,0,1.4-.56,1.47-1.29.04-.4-.09-.8-.36-1.1-.27-.3-.65-.47-1.05-.47h-35.55v-6.87h33.72c2.82,0,5.12-2.3,5.12-5.12v-17.99c0-.79-.64-1.42-1.42-1.42s-1.42.64-1.42,1.42v17.99c0,1.25-1.02,2.27-2.27,2.27H5.12c-1.25,0-2.27-1.02-2.27-2.27V5.12c0-1.25,1.02-2.27,2.27-2.27h71.84c1.25,0,2.27,1.02,2.27,2.27v15.49c0,.78.64,1.42,1.42,1.42Z"/>
        <path class="cls-1" d="M44.44,27.53H13.91c-.67,0-1.21.65-1.21,1.45s.54,1.45,1.21,1.45h30.53c.67,0,1.21-.65,1.21-1.45s-.54-1.45-1.21-1.45Z"/>
        <path class="cls-1" d="M44.44,35.1H13.91c-.67,0-1.21.65-1.21,1.45s.54,1.45,1.21,1.45h30.53c.67,0,1.21-.65,1.21-1.45s-.54-1.45-1.21-1.45Z"/>
        <path class="cls-1" d="M44.44,43.45H13.91c-.67,0-1.21.65-1.21,1.45s.54,1.45,1.21,1.45h30.53c.67,0,1.21-.65,1.21-1.45s-.54-1.45-1.21-1.45Z"/>
      </g>
      <circle class="cls-2" cx="80.65" cy="28.82" r="2.93"/>
    </g>
  </g>
</svg>