<?xml version="1.0" encoding="UTF-8"?>
<svg id="Capa_2" data-name="Capa 2" xmlns="http://www.w3.org/2000/svg" width="87.23" height="84.53" viewBox="0 0 87.23 84.53">
  <defs>
    <style>
      .cls-1 {
        fill: #00367b;
      }

      .cls-1, .cls-2 {
        stroke-width: 0px;
      }

      .cls-2 {
        fill: #00c8ff;
      }
    </style>
  </defs>
  <g id="Capa_3" data-name="Capa 3">
    <g>
      <path class="cls-1" d="M9.74,84.53c-.72,0-1.43-.22-2.05-.67-1.09-.79-1.62-2.1-1.39-3.42l1.59-9.28-6.83-6.84c-.96-.94-1.3-2.31-.89-3.59s1.5-2.19,2.82-2.38l9.32-1.35,4.4-8.61c.6-1.2,1.8-1.95,3.13-1.95h0c1.34,0,2.54.75,3.13,1.95l4.17,8.45,9.55,1.52c1.33.2,2.41,1.11,2.82,2.38.41,1.27.07,2.65-.89,3.58l-6.74,6.57,1.51,9.55c.23,1.32-.31,2.63-1.39,3.42-1.09.79-2.5.9-3.68.27l-8.33-4.38-8.62,4.38c-.51.27-1.07.41-1.63.41ZM19.85,76.51c.56,0,1.12.13,1.63.4l8.34,4.39.44-.32-1.59-9.28c-.19-1.13.18-2.29,1-3.09l6.75-6.58s.13-.13.07-.31c-.04-.12-.12-.19-.24-.21l-9.32-1.35c-1.14-.17-2.12-.88-2.63-1.91l-4.17-8.45c-.06-.11-.15-.17-.27-.17h0c-.12,0-.22.06-.27.17l-4.17,8.45c-.51,1.03-1.49,1.74-2.63,1.91l-9.32,1.35c-.12.02-.21.09-.25.21s-.01.22.08.31l6.74,6.57c.83.8,1.2,1.96,1.01,3.1l-1.59,9.28c-.02.12.02.22.12.3l8.65-4.36c.51-.27,1.07-.4,1.63-.4Z"/>
      <path class="cls-1" d="M77.49,84.53c-.56,0-1.11-.13-1.63-.41l-8.33-4.38-8.62,4.38c-1.19.63-2.6.52-3.68-.27-1.09-.79-1.62-2.1-1.39-3.42l1.59-9.29-6.83-6.84c-.96-.94-1.3-2.31-.89-3.58.41-1.28,1.49-2.19,2.82-2.38l9.32-1.35,4.4-8.61c.59-1.2,1.79-1.95,3.13-1.95h0c1.34,0,2.54.75,3.13,1.95l4.17,8.45,9.55,1.52c1.33.19,2.41,1.11,2.82,2.38s.07,2.65-.88,3.58l-6.75,6.58,1.51,9.55c.22,1.32-.31,2.63-1.39,3.42-.61.45-1.33.67-2.05.67ZM67.38,76.51c.56,0,1.12.13,1.63.4l8.33,4.38c.11.05.22.05.32-.02.1-.07.14-.17.12-.3l-1.59-9.28c-.19-1.14.19-2.3,1.01-3.1l6.74-6.57c.09-.08.11-.19.07-.31s-.12-.19-.25-.21l-9.32-1.35c-1.14-.17-2.12-.88-2.63-1.91l-4.17-8.45c-.06-.11-.15-.17-.27-.17h0l-4.44,8.62c-.5,1.03-1.48,1.74-2.63,1.91l-9.32,1.35c-.12.02-.21.09-.24.21-.06.18.04.28.07.31l6.74,6.57c.83.81,1.2,1.97,1.01,3.1l-1.59,9.28c-.02.12.02.22.12.29.1.08.2.09.32.02l8.33-4.38c.51-.27,1.07-.4,1.63-.4Z"/>
      <path class="cls-2" d="M53.72,38.09c-.56,0-1.11-.13-1.63-.41l-8.33-4.38-8.62,4.38c-1.19.62-2.6.52-3.68-.27-1.09-.79-1.62-2.1-1.39-3.42l1.59-9.28-6.83-6.84c-.96-.94-1.3-2.31-.89-3.59s1.5-2.19,2.82-2.38l9.32-1.35,4.4-8.61c.6-1.2,1.8-1.95,3.13-1.95h0c1.34,0,2.54.75,3.13,1.95l4.17,8.45,9.55,1.52c1.33.2,2.41,1.11,2.82,2.38.41,1.27.07,2.65-.89,3.58l-6.74,6.57,1.51,9.55c.22,1.32-.31,2.63-1.39,3.42-.61.45-1.33.67-2.05.67ZM43.61,30.08c.56,0,1.12.13,1.63.4l8.34,4.39c.12.06.22.05.32-.02.1-.07.14-.17.12-.3l-1.59-9.28c-.19-1.13.18-2.29,1-3.09l6.75-6.58s.13-.13.07-.31c-.04-.12-.12-.19-.24-.21l-9.32-1.35c-1.14-.17-2.13-.89-2.63-1.92l-4.17-8.44c-.06-.11-.15-.17-.27-.17h0c-.12,0-.22.06-.27.17l-4.17,8.45c-.51,1.03-1.49,1.74-2.63,1.91l-9.32,1.35c-.12.02-.21.09-.25.21s-.01.22.08.31l6.74,6.57c.83.8,1.2,1.96,1.01,3.1l-1.59,9.28c-.02.12.02.22.12.3.1.08.2.08.32.02l8.33-4.38c.51-.27,1.07-.4,1.63-.4Z"/>
    </g>
  </g>
</svg>