<?xml version="1.0" encoding="UTF-8"?>
<svg id="Capa_2" data-name="Capa 2" xmlns="http://www.w3.org/2000/svg" width="87.13" height="84.53" viewBox="0 0 87.13 84.53">
  <defs>
    <style>
      .cls-1 {
        fill: #00c8ff;
        stroke-width: 0px;
      }
    </style>
  </defs>
  <g id="Capa_3" data-name="Capa 3">
    <path class="cls-1" d="M25.25,74.15c-1.08,0-6.69-.28-9.35-5.89-.02-.03-.34-.56-.65-1.44l-10.28-19.4c-.09-.17-1.8-3.65.26-7.11l4.32-7.31L0,27.3h24.91s14.05,22.69,14.05,22.69l-11.08-6.73-5.06,8.54h20.39l.03,22.34h-17.81s-.08,0-.18,0ZM21.28,54.47l-2.94,5.28c-2.19,3.61-.17,7.1-.09,7.25,2.19,4.6,6.91,4.51,7.13,4.48h15.19l-.02-17.01h-19.28ZM9.66,29.96l3.54,2.11-5.68,9.6c-1.3,2.18-.23,4.43-.18,4.52l7.68,14.49c.22-.74.54-1.5,1.01-2.27l3.55-6.37,7.38-12.45,3.89,2.36-7.42-12h-13.77ZM57.71,84.53l-12.42-21.59,12.69-23.49-.32,12.96,9.93.14-10.17-17.68,19.36-11.15,8.87,15.44c.11.18,3.51,5.64-.36,11.2-.02.03-.33.59-.95,1.31l-11.67,18.55c-.11.16-2.29,3.3-6.29,3.31l-8.49-.11-.18,11.12ZM48.33,62.9l6.86,11.93.07-4.13,11.15.15h.08c2.52,0,3.91-2.07,3.93-2.09l8.69-13.81c-.75.18-1.57.28-2.46.26l-7.27.02-14.46-.2.11-4.55-6.7,12.41ZM61.06,35.84l9.61,16.72,6.02-.02c4.24.13,6.26-3.45,6.35-3.61,2.93-4.24.36-8.37.34-8.41l-7.57-13.18-14.74,8.49ZM36.21,31.89l-19.57-10.78,8.61-15.59c.09-.19,2.97-5.94,9.76-5.5.03,0,.62-.02,1.5.14h0s22.03.37,22.03.37c.19,0,4.07.19,6.09,3.67l4.31,7.32,9.61-5.61-12.03,21.81-26.67,1.31,11.25-6.44-5.03-8.56-9.86,17.85ZM20.27,20.06l14.9,8.21,9.31-16.86-3.22-5.08c-2.14-3.73-6.28-3.63-6.28-3.64-5.13-.26-7.27,3.89-7.36,4.07l-7.35,13.3ZM41.99,2.91c.56.56,1.09,1.24,1.55,2.04l3.88,6.13,7.34,12.49-3.95,2.26,14.09-.7,6.65-12.06-3.57,2.08-5.65-9.62c-1.3-2.22-3.84-2.35-3.87-2.35l-16.48-.28Z"/>
  </g>
</svg>