<?xml version="1.0" encoding="UTF-8"?>
<svg id="Capa_3" data-name="Capa 3" xmlns="http://www.w3.org/2000/svg" width="100" height="100" viewBox="0 0 100 100">
  <defs>
    <style>
      .cls-1 {
        fill: #00367b;
      }

      .cls-1, .cls-2 {
        stroke-width: 0px;
      }

      .cls-2 {
        fill: #00c8ff;
      }
    </style>
  </defs>
  <path class="cls-1" d="M50.04,72.49c-7.71,0-15.5-1.86-24.72-5.67-.37-.15-.62-.52-.62-.92v-17.28c0-.31.14-.6.39-.79.25-.19.56-.26.86-.18l24.04,6.29,15.73-4.11c.29-.09.62-.01.86.18.24.19.39.48.39.79v18.14c0,.44-.29.83-.71.96-5.66,1.72-10.93,2.6-16.23,2.6ZM26.69,65.22c14.52,5.9,25.37,6.75,38.28,2.96v-16.11l-14.73,3.85c-.17.04-.34.04-.51,0l-23.04-6.03v15.32Z"/>
  <path class="cls-2" d="M65.97,79.63c-.09,0-.17-.01-.26-.03-.44-.12-.74-.51-.74-.97v-32.75c0-.45.31-.85.75-.97l8.51-2.22c.29-.09.62-.01.86.18.25.19.39.48.39.79l-.16,32.22c0,.41-.26.78-.65.93-.39.14-.83.04-1.1-.28l-3.17-3.6-3.56,6.19c-.18.32-.52.5-.87.5ZM66.97,46.65v28.24l2.39-4.16c.16-.28.45-.46.77-.5.33-.04.64.09.85.33l2.36,2.67.14-28.29-6.5,1.7Z"/>
  <path class="cls-1" d="M50,51.06c-.09,0-.17-.01-.25-.03l-39.83-10.41c-.44-.12-.75-.51-.75-.97s.31-.85.75-.97l39.83-10.41c.16-.04.34-.04.5,0l39.83,10.41c.44.12.75.51.75.97s-.31.85-.75.97l-39.83,10.41c-.08.02-.17.03-.25.03ZM14.12,39.65l35.88,9.38,35.88-9.38-35.88-9.38-35.88,9.38Z"/>
  <path class="cls-2" d="M65.97,46.88c-.08,0-.17,0-.25-.03l-24.48-6.24c-.44-.11-.75-.51-.75-.96,0-.46.31-.85.75-.97l8.51-2.22c.16-.04.34-.04.5,0l24.48,6.24c.44.11.75.51.75.96,0,.46-.31.85-.75.97l-8.51,2.22c-.08.02-.17.03-.25.03ZM45.49,39.63l20.48,5.22,4.51-1.18-20.48-5.22-4.51,1.18Z"/>
</svg>