<?xml version="1.0" encoding="UTF-8"?>
<svg id="Capa_3" data-name="Capa 3" xmlns="http://www.w3.org/2000/svg" width="100" height="100" viewBox="0 0 100 100">
  <defs>
    <style>
      .cls-1 {
        fill: #00367b;
      }

      .cls-1, .cls-2 {
        stroke-width: 0px;
      }

      .cls-2 {
        fill: #00c8ff;
      }
    </style>
  </defs>
  <path class="cls-1" d="M79.93,55.52c-.2-.25-.51-.4-.83-.4-.5,0-.93.34-1.04.83-.91,4.13-2.93,8.03-5.85,11.28-.25.28-.33.65-.23,1l2.04,7.68-8.23-2.98c-.29-.11-.61-.08-.88.07-4.43,2.44-9.53,3.73-14.74,3.73-15.68,0-28.43-11.57-28.43-25.8s12.76-25.8,28.43-25.8c13.9,0,25.99,9.39,28.1,21.85.09.51.53.88,1.05.88.31,0,.61-.14.82-.38.2-.24.29-.55.24-.86-2.29-13.47-15.27-23.63-30.2-23.63-16.85,0-30.56,12.53-30.56,27.93s13.71,27.93,30.56,27.93c5.4,0,10.7-1.3,15.34-3.76l9.7,3.52c.38.14.79.05,1.08-.22.29-.27.41-.68.31-1.06l-2.43-9.11c2.96-3.43,5.02-7.51,5.96-11.81.07-.31,0-.64-.21-.89Z"/>
  <g>
    <circle class="cls-2" cx="39.54" cy="53.39" r="1.96"/>
    <circle class="cls-2" cx="49.5" cy="53.39" r="1.96"/>
    <circle class="cls-2" cx="59.47" cy="53.39" r="1.96"/>
  </g>
</svg>