<?xml version="1.0" encoding="UTF-8"?>
<svg id="Capa_3" data-name="Capa 3" xmlns="http://www.w3.org/2000/svg" width="100" height="100" viewBox="0 0 100 100">
  <defs>
    <style>
      .cls-1 {
        fill: #00367b;
      }

      .cls-1, .cls-2 {
        stroke-width: 0px;
      }

      .cls-2 {
        fill: #00c8ff;
      }
    </style>
  </defs>
  <path class="cls-1" d="M77.08,91.87c-.91-5.88-3.66-11.2-7.96-15.39-3.38-3.29-7.53-5.64-12.08-6.83-7.61-1.53-14.32.09-14.63.16-4.34,1.24-8.3,3.52-11.53,6.67-4.31,4.19-7.06,9.51-7.97,15.39-.06.36.05.73.29,1.01.24.28.59.44.96.44.62,0,1.15-.45,1.24-1.06.83-5.27,3.4-10.23,7.23-13.96,4.66-4.54,10.83-7.04,17.36-7.04s12.7,2.5,17.36,7.03c3.83,3.73,6.39,8.69,7.23,13.97.1.62.62,1.06,1.24,1.06.37,0,.72-.16.96-.44.24-.28.35-.65.29-1.01Z"/>
  <path class="cls-1" d="M60.76,39.42c-.26.71-.65,1.39-1.15,2.01,3.27,2.75,5.36,6.87,5.36,11.46,0,8.25-6.72,14.97-14.97,14.97s-14.97-6.72-14.97-14.97c0-4.6,2.09-8.72,5.36-11.46-.5-.62-.89-1.3-1.15-2.01-3.95,3.16-6.5,8.03-6.5,13.47,0,9.51,7.74,17.25,17.25,17.25s17.25-7.74,17.25-17.25c0-5.45-2.54-10.31-6.49-13.47Z"/>
  <g>
    <path class="cls-2" d="M56.84,23.8c-1.91-1.71-4.27-2.62-6.83-2.62-.39,0-.79.02-1.18.07-4.56.51-8.34,4.17-8.99,8.7-.53,3.75.94,7.36,3.93,9.65.95.72,1.52,1.94,1.52,3.24v2.17c0,.89.72,1.61,1.61,1.61h6.19c.89,0,1.61-.72,1.61-1.61v-2.32c0-1.22.54-2.36,1.45-3.04,2.61-1.96,4.11-4.95,4.11-8.2,0-2.92-1.25-5.7-3.42-7.65ZM53.2,42.69v2.32c0,.06-.05.11-.11.11h-6.19c-.06,0-.11-.05-.11-.11v-2.17c0-1.77-.79-3.43-2.11-4.44-2.56-1.95-3.81-5.03-3.36-8.24.55-3.87,3.77-6.99,7.66-7.42.34-.04.68-.06,1.02-.06,2.18,0,4.2.77,5.83,2.23,1.86,1.66,2.92,4.04,2.92,6.53,0,2.77-1.28,5.33-3.5,7-1.28.96-2.05,2.55-2.05,4.25Z"/>
    <path class="cls-2" d="M53.85,48.08c0-.41-.34-.75-.75-.75h-6.19c-.41,0-.75.34-.75.75,0,.3.18.55.43.67-.25.12-.43.37-.43.67,0,.41.34.75.75.75h.39c-.18.14-.3.34-.3.59,0,.41.34.75.75.75h4.51c.41,0,.75-.34.75-.75,0-.24-.12-.45-.3-.59h.39c.41,0,.75-.34.75-.75,0-.3-.18-.55-.43-.67.25-.12.43-.37.43-.67Z"/>
  </g>
  <path class="cls-2" d="M36.45,31.92h-9.92c-.43,0-.77-.35-.77-.77s.35-.77.77-.77h9.92c.43,0,.77.35.77.77s-.35.77-.77.77Z"/>
  <path class="cls-2" d="M38.48,23.97c-.1,0-.19-.02-.29-.06l-9.2-3.71c-.4-.16-.59-.61-.43-1.01.16-.4.61-.59,1.01-.43l9.2,3.71c.4.16.59.61.43,1.01-.12.3-.41.49-.72.49Z"/>
  <path class="cls-2" d="M43.09,19.37c-.25,0-.49-.12-.64-.33l-5.68-8.14c-.24-.35-.16-.83.19-1.08.35-.25.83-.16,1.08.19l5.68,8.14c.24.35.16.83-.19,1.08-.14.09-.29.14-.44.14Z"/>
  <path class="cls-2" d="M50,18.02c-.43,0-.77-.35-.77-.77V7.32c0-.43.35-.77.77-.77s.77.35.77.77v9.92c0,.43-.35.77-.77.77Z"/>
  <path class="cls-2" d="M73.47,31.92h-9.92c-.43,0-.77-.35-.77-.77s.35-.77.77-.77h9.92c.43,0,.77.35.77.77s-.35.77-.77.77Z"/>
  <path class="cls-2" d="M61.52,23.97c-.31,0-.6-.18-.72-.49-.16-.4.03-.85.43-1.01l9.2-3.71c.4-.16.85.03,1.01.43.16.4-.03.85-.43,1.01l-9.2,3.71c-.1.04-.19.06-.29.06Z"/>
  <path class="cls-2" d="M56.91,19.37c-.15,0-.31-.05-.44-.14-.35-.25-.44-.73-.19-1.08l5.68-8.14c.24-.35.73-.44,1.08-.19.35.25.44.73.19,1.08l-5.68,8.14c-.15.22-.39.33-.64.33Z"/>
</svg>