<?xml version="1.0" encoding="UTF-8"?>
<svg id="Capa_3" data-name="Capa 3" xmlns="http://www.w3.org/2000/svg" width="100" height="100" viewBox="0 0 100 100">
  <defs>
    <style>
      .cls-1 {
        fill: #00367b;
      }

      .cls-1, .cls-2 {
        stroke-width: 0px;
      }

      .cls-2 {
        fill: #00c8ff;
      }
    </style>
  </defs>
  <g>
    <path class="cls-2" d="M34.32,85.98c-.48,0-.94-.26-1.16-.72-.32-.64-.06-1.42.58-1.74,3.93-1.96,6.55-6.37,6.53-10.97-.04-7.97-8.6-18.21-11.49-21.44-2.86,3.26-11.31,13.58-11.27,21.55.02,4.61,2.69,8.99,6.64,10.91.64.31.91,1.09.6,1.73-.31.65-1.09.91-1.73.6-4.89-2.38-8.07-7.57-8.09-13.22-.05-10.59,12.39-23.82,12.91-24.38.24-.26.58-.4.93-.4h0c.35,0,.69.14.94.39.53.55,13.1,13.66,13.15,24.25.03,5.66-3.1,10.88-7.96,13.3-.18.09-.38.14-.57.14Z"/>
    <path class="cls-2" d="M28.98,92.14c-.72,0-1.3-.57-1.3-1.29l-.16-32.82c0-.72.57-1.3,1.29-1.3.72,0,1.3.57,1.3,1.29l.16,32.82c0,.72-.57,1.3-1.29,1.3Z"/>
    <path class="cls-2" d="M28.93,83.04c-.31,0-.61-.11-.86-.32l-7.45-6.49c-.54-.47-.6-1.29-.13-1.83.47-.54,1.29-.6,1.83-.13l6.59,5.74,6.53-5.8c.53-.48,1.35-.43,1.83.11.48.53.43,1.35-.11,1.83l-7.38,6.56c-.24.22-.55.33-.85.33Z"/>
    <path class="cls-2" d="M28.88,72.12c-.31,0-.61-.11-.86-.32l-5.63-4.91c-.54-.47-.6-1.29-.13-1.83.47-.54,1.29-.6,1.83-.13l4.77,4.16,4.73-4.2c.53-.48,1.35-.43,1.83.11.48.53.43,1.35-.11,1.83l-5.58,4.96c-.24.22-.55.33-.85.33Z"/>
  </g>
  <g>
    <path class="cls-1" d="M28.73,42.33c-.72,0-1.3-.57-1.3-1.29l-.07-14.25c-.01-2.14,1.72-3.89,3.87-3.9l14.78-.07c.72,0,1.3.57,1.3,1.29s-.57,1.3-1.29,1.3l-14.78.07c-.71,0-1.29.59-1.29,1.3l.07,14.25c0,.72-.57,1.3-1.29,1.3Z"/>
    <path class="cls-1" d="M39.51,33.07c-.33,0-.66-.12-.92-.37-.51-.5-.51-1.32,0-1.83l6.69-6.75-6.75-6.69c-.51-.5-.51-1.32,0-1.83s1.32-.51,1.83,0l7.67,7.6c.51.5.51,1.32,0,1.83l-7.6,7.67c-.25.25-.58.38-.91.38Z"/>
  </g>
  <g>
    <path class="cls-1" d="M73.71,42.63c-.72,0-1.3-.57-1.3-1.29l-.07-14.78c0-.71-.59-1.29-1.3-1.29l-14.25.07c-.72,0-1.3-.57-1.3-1.29,0-.72.57-1.3,1.29-1.3l14.25-.07c2.14-.01,3.89,1.72,3.9,3.87l.07,14.78c0,.72-.57,1.3-1.29,1.3Z"/>
    <path class="cls-1" d="M73.72,43.73c-.33,0-.66-.12-.92-.37l-7.67-7.6c-.51-.5-.51-1.32,0-1.83.5-.51,1.32-.51,1.83,0l6.75,6.69,6.69-6.75c.5-.51,1.32-.51,1.83,0,.51.5.51,1.32,0,1.83l-7.6,7.67c-.25.25-.58.38-.91.38Z"/>
  </g>
  <g>
    <path class="cls-1" d="M71.26,70.43l-14.78.07c-.72,0-1.3-.57-1.3-1.29,0-.72.57-1.3,1.29-1.3l14.78-.07c.71,0,1.29-.59,1.29-1.3l-.07-14.25c0-.72.57-1.3,1.29-1.3s1.3.57,1.3,1.29l.07,14.25c.01,2.14-1.72,3.89-3.87,3.9Z"/>
    <path class="cls-1" d="M63.06,78.11c-.33,0-.66-.12-.92-.37l-7.67-7.6c-.51-.5-.51-1.32,0-1.83l7.6-7.67c.5-.51,1.32-.51,1.83,0,.51.5.51,1.32,0,1.83l-6.69,6.75,6.75,6.69c.51.5.51,1.32,0,1.83-.25.25-.58.38-.91.38Z"/>
  </g>
</svg>