<?xml version="1.0" encoding="UTF-8"?>
<svg id="Capa_3" data-name="Capa 3" xmlns="http://www.w3.org/2000/svg" width="100" height="100" viewBox="0 0 100 100">
  <defs>
    <style>
      .cls-1 {
        fill: #00367b;
      }

      .cls-1, .cls-2 {
        stroke-width: 0px;
      }

      .cls-2 {
        fill: #00c8ff;
      }
    </style>
  </defs>
  <path class="cls-1" d="M80.45,38.76l-10.24-13.95c-.26-.35-.67-.56-1.1-.56H30.3c-.43,0-.84.21-1.1.55l-10.25,13.79c-.69.92-.95,2.08-.73,3.18.78,3.87,4.21,6.68,8.16,6.7v26.15c0,1.65,1.34,2.99,2.99,2.99h7.05c.52,0,.93-.42.93-.93s-.42-.93-.93-.93h-7.05c-.62,0-1.13-.51-1.13-1.13v-26.16c2.34-.07,4.52-1.11,6.06-2.88,1.58,1.81,3.92,2.89,6.32,2.89h1.56c2.77,0,5.33-1.35,6.89-3.62,1.56,2.27,4.12,3.62,6.89,3.62h1.56c2.77,0,5.33-1.35,6.89-3.62,1.47,2.13,3.84,3.46,6.43,3.6v26.17c0,.62-.51,1.13-1.13,1.13h-6.89c-.51,0-.93.42-.93.93s.42.93.93.93h6.89c1.65,0,2.99-1.34,2.99-2.99v-26.15h.16c4.12,0,7.6-2.95,8.26-7.02.15-.94-.09-1.92-.66-2.7ZM79.27,41.16c-.51,3.16-3.21,5.45-6.42,5.45h-1.56c-2.36,0-4.54-1.29-5.69-3.36-.24-.44-.7-.71-1.2-.71s-.96.27-1.2.71c-1.14,2.07-3.32,3.36-5.69,3.36h-1.56c-2.36,0-4.54-1.29-5.69-3.36-.24-.44-.7-.71-1.2-.71s-.96.27-1.2.71c-1.14,2.07-3.32,3.36-5.69,3.36h-1.56c-2.08,0-3.98-.96-5.22-2.63-.26-.35-.67-.55-1.1-.55s-.84.21-1.1.55c-1.24,1.67-3.15,2.63-5.22,2.63h-1.56c-3.08,0-5.76-2.19-6.37-5.2-.12-.58.03-1.2.4-1.7l10.1-13.59h38.31l10.09,13.74c.28.38.4.85.32,1.3Z"/>
  <path class="cls-2" d="M55.49,61.22h-11.69c-1.94,0-3.51,1.58-3.51,3.51v12.24c0,.35.28.63.63.63h17.46c.35,0,.63-.28.63-.63v-12.24c0-1.94-1.58-3.51-3.51-3.51ZM42.15,64.73c0-.91.74-1.65,1.65-1.65h11.69c.91,0,1.65.74,1.65,1.65v11.01h-14.99v-11.01Z"/>
</svg>