<?xml version="1.0" encoding="UTF-8"?>
<svg id="Capa_2" data-name="Capa 2" xmlns="http://www.w3.org/2000/svg" width="100" height="100" viewBox="0 0 100 100">
  <defs>
    <style>
      .cls-1 {
        fill: none;
      }

      .cls-1, .cls-2, .cls-3, .cls-4 {
        stroke-width: 0px;
      }

      .cls-2 {
        fill-rule: evenodd;
      }

      .cls-2, .cls-4 {
        fill: #00c8ff;
      }

      .cls-3 {
        fill: #00377d;
      }
    </style>
  </defs>
  <g id="Capa_1-2" data-name="Capa 1">
    <g>
      <rect class="cls-1" width="100" height="100"/>
      <g>
        <path class="cls-3" d="M30.66,53.23c0,1.09.12,1.97.32,2.62.24.65.53,1.36.94,2.12.15.24.21.47.21.68,0,.29-.18.59-.56.88l-1.86,1.24c-.27.18-.53.27-.77.27-.29,0-.59-.15-.88-.41-.41-.44-.77-.91-1.06-1.39-.29-.5-.59-1.06-.91-1.74-2.3,2.71-5.19,4.07-8.67,4.07-2.48,0-4.45-.71-5.9-2.12-1.44-1.41-2.18-3.3-2.18-5.66,0-2.51.88-4.54,2.68-6.07,1.8-1.53,4.19-2.3,7.22-2.3,1,0,2.03.09,3.12.24s2.21.38,3.39.65v-2.15c0-2.24-.47-3.8-1.39-4.72-.94-.91-2.54-1.36-4.8-1.36-1.03,0-2.09.12-3.18.38s-2.15.59-3.18,1c-.47.21-.83.32-1.03.38-.21.06-.35.09-.47.09-.41,0-.62-.29-.62-.91v-1.44c0-.47.06-.83.21-1.03s.41-.41.83-.62c1.03-.53,2.27-.97,3.71-1.33,1.44-.38,2.98-.56,4.6-.56,3.51,0,6.07.8,7.72,2.39,1.62,1.59,2.45,4.01,2.45,7.25v9.55h.06ZM18.69,57.71c.97,0,1.97-.18,3.04-.53,1.06-.35,2-1,2.8-1.89.47-.56.83-1.18,1-1.89s.29-1.56.29-2.56v-1.24c-.85-.21-1.77-.38-2.71-.5s-1.86-.18-2.77-.18c-1.97,0-3.42.38-4.39,1.18-.97.8-1.44,1.92-1.44,3.39,0,1.39.35,2.42,1.09,3.12.71.74,1.74,1.09,3.1,1.09ZM42.36,60.89c-.53,0-.88-.09-1.12-.29-.24-.18-.44-.59-.62-1.15l-6.93-22.79c-.18-.59-.27-.97-.27-1.18,0-.47.24-.74.71-.74h2.89c.56,0,.94.09,1.15.29.24.18.41.59.59,1.15l4.95,19.51,4.6-19.51c.15-.59.32-.97.56-1.15.24-.18.65-.29,1.18-.29h2.36c.56,0,.94.09,1.18.29.24.18.44.59.56,1.15l4.66,19.75,5.1-19.75c.18-.59.38-.97.59-1.15.24-.18.62-.29,1.15-.29h2.74c.47,0,.74.24.74.74,0,.15-.03.29-.06.47-.03.18-.09.41-.21.74l-7.1,22.79c-.18.59-.38.97-.62,1.15s-.62.29-1.12.29h-2.54c-.56,0-.94-.09-1.18-.29s-.44-.59-.56-1.18l-4.57-19.01-4.54,18.98c-.15.59-.32.97-.56,1.18-.24.21-.65.29-1.18.29h-2.54ZM80.24,61.69c-1.53,0-3.07-.18-4.54-.53-1.47-.35-2.62-.74-3.39-1.18-.47-.27-.8-.56-.91-.83-.12-.27-.18-.56-.18-.83v-1.5c0-.62.24-.91.68-.91.18,0,.35.03.53.09.18.06.44.18.74.29,1,.44,2.09.8,3.24,1.03,1.18.24,2.33.35,3.51.35,1.86,0,3.3-.32,4.3-.97,1-.65,1.53-1.59,1.53-2.8,0-.83-.27-1.5-.8-2.06-.53-.56-1.53-1.06-2.98-1.53l-4.27-1.33c-2.15-.68-3.74-1.68-4.72-3.01-.97-1.3-1.47-2.74-1.47-4.27,0-1.24.27-2.33.8-3.27.53-.94,1.24-1.77,2.12-2.42.88-.68,1.89-1.18,3.07-1.53,1.18-.35,2.42-.5,3.71-.5.65,0,1.33.03,1.97.12.68.09,1.3.21,1.92.32.59.15,1.15.29,1.68.47.53.18.94.35,1.24.53.41.24.71.47.88.74.18.24.27.56.27.97v1.39c0,.62-.24.94-.68.94-.24,0-.62-.12-1.12-.35-1.68-.77-3.57-1.15-5.66-1.15-1.68,0-3.01.27-3.92.83s-1.39,1.41-1.39,2.62c0,.83.29,1.53.88,2.09.59.56,1.68,1.12,3.24,1.62l4.19,1.33c2.12.68,3.66,1.62,4.57,2.83.91,1.21,1.36,2.59,1.36,4.13,0,1.27-.27,2.42-.77,3.42-.53,1-1.24,1.89-2.15,2.59-.91.74-2,1.27-3.27,1.65-1.33.41-2.71.62-4.22.62Z"/>
        <g>
          <path class="cls-2" d="M85.81,76.01c-9.7,7.16-23.79,10.97-35.9,10.97-16.98,0-32.28-6.28-43.83-16.71-.91-.83-.09-1.95,1-1.3,12.5,7.25,27.91,11.64,43.86,11.64,10.76,0,22.58-2.24,33.46-6.84,1.62-.74,3.01,1.06,1.41,2.24Z"/>
          <path class="cls-2" d="M89.85,71.41c-1.24-1.59-8.19-.77-11.35-.38-.94.12-1.09-.71-.24-1.33,5.54-3.89,14.65-2.77,15.71-1.47,1.06,1.33-.29,10.43-5.48,14.8-.8.68-1.56.32-1.21-.56,1.18-2.92,3.8-9.49,2.56-11.05Z"/>
        </g>
      </g>
      <g>
        <rect class="cls-4" x="68.32" y="10.95" width="5.8" height="18.33"/>
        <rect class="cls-4" x="68.32" y="10.95" width="5.8" height="18.33" transform="translate(91.34 -51.11) rotate(90)"/>
      </g>
      <g>
        <path class="cls-3" d="M30.66,53.23c0,1.09.12,1.97.32,2.62.24.65.53,1.36.94,2.12.15.24.21.47.21.68,0,.29-.18.59-.56.88l-1.86,1.24c-.27.18-.53.27-.77.27-.29,0-.59-.15-.88-.41-.41-.44-.77-.91-1.06-1.39-.29-.5-.59-1.06-.91-1.74-2.3,2.71-5.19,4.07-8.67,4.07-2.48,0-4.45-.71-5.9-2.12-1.44-1.41-2.18-3.3-2.18-5.66,0-2.51.88-4.54,2.68-6.07,1.8-1.53,4.19-2.3,7.22-2.3,1,0,2.03.09,3.12.24s2.21.38,3.39.65v-2.15c0-2.24-.47-3.8-1.39-4.72-.94-.91-2.54-1.36-4.8-1.36-1.03,0-2.09.12-3.18.38s-2.15.59-3.18,1c-.47.21-.83.32-1.03.38-.21.06-.35.09-.47.09-.41,0-.62-.29-.62-.91v-1.44c0-.47.06-.83.21-1.03s.41-.41.83-.62c1.03-.53,2.27-.97,3.71-1.33,1.44-.38,2.98-.56,4.6-.56,3.51,0,6.07.8,7.72,2.39,1.62,1.59,2.45,4.01,2.45,7.25v9.55h.06ZM18.69,57.71c.97,0,1.97-.18,3.04-.53,1.06-.35,2-1,2.8-1.89.47-.56.83-1.18,1-1.89s.29-1.56.29-2.56v-1.24c-.85-.21-1.77-.38-2.71-.5s-1.86-.18-2.77-.18c-1.97,0-3.42.38-4.39,1.18-.97.8-1.44,1.92-1.44,3.39,0,1.39.35,2.42,1.09,3.12.71.74,1.74,1.09,3.1,1.09ZM42.36,60.89c-.53,0-.88-.09-1.12-.29-.24-.18-.44-.59-.62-1.15l-6.93-22.79c-.18-.59-.27-.97-.27-1.18,0-.47.24-.74.71-.74h2.89c.56,0,.94.09,1.15.29.24.18.41.59.59,1.15l4.95,19.51,4.6-19.51c.15-.59.32-.97.56-1.15.24-.18.65-.29,1.18-.29h2.36c.56,0,.94.09,1.18.29.24.18.44.59.56,1.15l4.66,19.75,5.1-19.75c.18-.59.38-.97.59-1.15.24-.18.62-.29,1.15-.29h2.74c.47,0,.74.24.74.74,0,.15-.03.29-.06.47-.03.18-.09.41-.21.74l-7.1,22.79c-.18.59-.38.97-.62,1.15s-.62.29-1.12.29h-2.54c-.56,0-.94-.09-1.18-.29s-.44-.59-.56-1.18l-4.57-19.01-4.54,18.98c-.15.59-.32.97-.56,1.18-.24.21-.65.29-1.18.29h-2.54ZM80.24,61.69c-1.53,0-3.07-.18-4.54-.53-1.47-.35-2.62-.74-3.39-1.18-.47-.27-.8-.56-.91-.83-.12-.27-.18-.56-.18-.83v-1.5c0-.62.24-.91.68-.91.18,0,.35.03.53.09.18.06.44.18.74.29,1,.44,2.09.8,3.24,1.03,1.18.24,2.33.35,3.51.35,1.86,0,3.3-.32,4.3-.97,1-.65,1.53-1.59,1.53-2.8,0-.83-.27-1.5-.8-2.06-.53-.56-1.53-1.06-2.98-1.53l-4.27-1.33c-2.15-.68-3.74-1.68-4.72-3.01-.97-1.3-1.47-2.74-1.47-4.27,0-1.24.27-2.33.8-3.27.53-.94,1.24-1.77,2.12-2.42.88-.68,1.89-1.18,3.07-1.53,1.18-.35,2.42-.5,3.71-.5.65,0,1.33.03,1.97.12.68.09,1.3.21,1.92.32.59.15,1.15.29,1.68.47.53.18.94.35,1.24.53.41.24.71.47.88.74.18.24.27.56.27.97v1.39c0,.62-.24.94-.68.94-.24,0-.62-.12-1.12-.35-1.68-.77-3.57-1.15-5.66-1.15-1.68,0-3.01.27-3.92.83s-1.39,1.41-1.39,2.62c0,.83.29,1.53.88,2.09.59.56,1.68,1.12,3.24,1.62l4.19,1.33c2.12.68,3.66,1.62,4.57,2.83.91,1.21,1.36,2.59,1.36,4.13,0,1.27-.27,2.42-.77,3.42-.53,1-1.24,1.89-2.15,2.59-.91.74-2,1.27-3.27,1.65-1.33.41-2.71.62-4.22.62Z"/>
        <g>
          <path class="cls-2" d="M85.81,76.01c-9.7,7.16-23.79,10.97-35.9,10.97-16.98,0-32.28-6.28-43.83-16.71-.91-.83-.09-1.95,1-1.3,12.5,7.25,27.91,11.64,43.86,11.64,10.76,0,22.58-2.24,33.46-6.84,1.62-.74,3.01,1.06,1.41,2.24Z"/>
          <path class="cls-2" d="M89.85,71.41c-1.24-1.59-8.19-.77-11.35-.38-.94.12-1.09-.71-.24-1.33,5.54-3.89,14.65-2.77,15.71-1.47,1.06,1.33-.29,10.43-5.48,14.8-.8.68-1.56.32-1.21-.56,1.18-2.92,3.8-9.49,2.56-11.05Z"/>
        </g>
      </g>
    </g>
  </g>
</svg>