<?xml version="1.0" encoding="UTF-8"?>
<svg id="Capa_2" data-name="Capa 2" xmlns="http://www.w3.org/2000/svg" width="100" height="100" viewBox="0 0 100 100">
  <defs>
    <style>
      .cls-1 {
        fill: none;
      }

      .cls-1, .cls-2, .cls-3 {
        stroke-width: 0px;
      }

      .cls-2 {
        fill: #00367b;
      }

      .cls-3 {
        fill: #00c8ff;
      }
    </style>
  </defs>
  <g id="Capa_1-2" data-name="Capa 1">
    <g>
      <rect class="cls-1" width="100" height="100"/>
      <g>
        <polygon class="cls-3" points="27.61 50.98 19.62 50.98 19.62 34.99 27.61 34.99 27.61 38.18 22.82 38.18 22.82 47.78 27.61 47.78 27.61 50.98"/>
        <polygon class="cls-3" points="80.38 50.98 72.39 50.98 72.39 47.78 77.18 47.78 77.18 38.18 72.39 38.18 72.39 34.99 80.38 34.99 80.38 50.98"/>
        <path class="cls-2" d="M42,47.42c-3.33,0-6.04-2.71-6.04-6.04s2.71-6.04,6.04-6.04,6.04,2.71,6.04,6.04-2.71,6.04-6.04,6.04ZM42,37.83c-1.96,0-3.55,1.59-3.55,3.55s1.59,3.55,3.55,3.55,3.55-1.59,3.55-3.55-1.59-3.55-3.55-3.55Z"/>
        <path class="cls-2" d="M58,47.42c-3.33,0-6.04-2.71-6.04-6.04s2.71-6.04,6.04-6.04,6.04,2.71,6.04,6.04-2.71,6.04-6.04,6.04ZM58,37.83c-1.96,0-3.55,1.59-3.55,3.55s1.59,3.55,3.55,3.55,3.55-1.59,3.55-3.55-1.59-3.55-3.55-3.55Z"/>
        <path class="cls-2" d="M73.63,60.22H26.37V25.74h47.27v34.47ZM28.86,57.73h42.28v-29.49H28.86v29.49Z"/>
        <path class="cls-2" d="M80.03,89H19.97v-24.88h60.06v24.88ZM22.46,86.51h55.07v-19.89H22.46v19.89Z"/>
        <path class="cls-2" d="M54.8,53.82h-9.59c-.69,0-1.25-.56-1.25-1.25s.56-1.25,1.25-1.25h9.59c.69,0,1.25.56,1.25,1.25s-.56,1.25-1.25,1.25Z"/>
        <path class="cls-2" d="M50,28.24c-.69,0-1.25-.56-1.25-1.25v-12.79c0-.69.56-1.25,1.25-1.25s1.25.56,1.25,1.25v12.79c0,.69-.56,1.25-1.25,1.25Z"/>
        <circle class="cls-3" cx="50" cy="14.2" r="3.2"/>
        <path class="cls-2" d="M38.45,82.6h-12.09v-12.09h12.09v12.09ZM28.86,80.11h7.1v-7.1h-7.1v7.1Z"/>
        <circle class="cls-3" cx="70.79" cy="76.56" r="3.2"/>
        <circle class="cls-3" cx="61.19" cy="76.56" r="3.2"/>
      </g>
    </g>
  </g>
</svg>