<?xml version="1.0" encoding="UTF-8"?>
<svg id="Capa_2" data-name="Capa 2" xmlns="http://www.w3.org/2000/svg" width="100" height="100" viewBox="0 0 100 100">
  <defs>
    <style>
      .cls-1 {
        fill: none;
      }

      .cls-1, .cls-2, .cls-3, .cls-4, .cls-5 {
        stroke-width: 0px;
      }

      .cls-2 {
        fill-rule: evenodd;
      }

      .cls-2, .cls-5 {
        fill: #00c8ff;
      }

      .cls-3 {
        fill: #00367b;
      }

      .cls-4 {
        fill: #00377d;
      }
    </style>
  </defs>
  <g id="Capa_1-2" data-name="Capa 1">
    <g>
      <rect class="cls-1" width="100" height="100"/>
      <g>
        <path class="cls-3" d="M82.09,49.21c.83,0,1.5-.67,1.5-1.5V15.42c0-2.99-2.43-5.42-5.42-5.42H21.83c-2.99,0-5.42,2.43-5.42,5.42v69.15c0,2.99,2.43,5.42,5.42,5.42h56.34c2.99,0,5.42-2.43,5.42-5.42v-24.48c0-.83-.67-1.5-1.5-1.5s-1.5.67-1.5,1.5v24.48c0,1.33-1.09,2.42-2.42,2.42H21.83c-1.33,0-2.42-1.09-2.42-2.42V15.42c0-1.33,1.09-2.42,2.42-2.42h1.32v19.66c0,.46.18.88.49,1.16.52.48,1.33.53,1.9.11l6.38-4.66,6.76,5.25c.46.36,1.14.42,1.65.13.48-.27.77-.8.77-1.38V13h37.06c1.33,0,2.42,1.09,2.42,2.42v32.29c0,.83.67,1.5,1.5,1.5ZM38.11,30.26l-5.23-4.07c-.26-.2-.58-.31-.9-.31h0s-.01,0-.01,0c-.32,0-.63.1-.89.29l-4.91,3.58V13h11.95v17.26Z"/>
        <path class="cls-5" d="M72.61,20.13h-24c-.83,0-1.5.67-1.5,1.5s.67,1.5,1.5,1.5h24c.83,0,1.5-.67,1.5-1.5s-.67-1.5-1.5-1.5Z"/>
        <path class="cls-5" d="M72.61,27.26h-24c-.83,0-1.5.67-1.5,1.5s.67,1.5,1.5,1.5h24c.83,0,1.5-.67,1.5-1.5s-.67-1.5-1.5-1.5Z"/>
        <path class="cls-5" d="M72.61,34.39h-24c-.83,0-1.5.67-1.5,1.5s.67,1.5,1.5,1.5h24c.83,0,1.5-.67,1.5-1.5s-.67-1.5-1.5-1.5Z"/>
        <g>
          <path class="cls-4" d="M40.33,59.63c0,.55.06.99.16,1.31.12.32.27.68.47,1.06.07.12.1.24.1.34,0,.15-.09.29-.28.44l-.93.62c-.13.09-.27.13-.38.13-.15,0-.29-.07-.44-.21-.21-.22-.38-.46-.53-.69-.15-.25-.29-.53-.46-.87-1.15,1.36-2.59,2.03-4.33,2.03-1.24,0-2.23-.35-2.95-1.06-.72-.71-1.09-1.65-1.09-2.83,0-1.25.44-2.27,1.34-3.04.9-.77,2.09-1.15,3.61-1.15.5,0,1.02.04,1.56.12s1.11.19,1.7.32v-1.08c0-1.12-.24-1.9-.69-2.36-.47-.46-1.27-.68-2.4-.68-.52,0-1.05.06-1.59.19s-1.08.29-1.59.5c-.24.1-.41.16-.52.19-.1.03-.18.04-.24.04-.21,0-.31-.15-.31-.46v-.72c0-.24.03-.41.1-.52s.21-.21.41-.31c.52-.27,1.13-.49,1.86-.66.72-.19,1.49-.28,2.3-.28,1.75,0,3.04.4,3.86,1.19.81.8,1.22,2,1.22,3.63v4.78h.03ZM34.35,61.87c.49,0,.99-.09,1.52-.27.53-.18,1-.5,1.4-.94.24-.28.41-.59.5-.94s.15-.78.15-1.28v-.62c-.43-.1-.88-.19-1.36-.25s-.93-.09-1.39-.09c-.99,0-1.71.19-2.2.59-.49.4-.72.96-.72,1.7,0,.69.18,1.21.55,1.56.35.37.87.55,1.55.55ZM46.18,63.46c-.27,0-.44-.04-.56-.15-.12-.09-.22-.29-.31-.57l-3.46-11.39c-.09-.29-.13-.49-.13-.59,0-.24.12-.37.35-.37h1.44c.28,0,.47.04.57.15.12.09.21.29.29.57l2.48,9.76,2.3-9.76c.07-.29.16-.49.28-.57.12-.09.32-.15.59-.15h1.18c.28,0,.47.04.59.15.12.09.22.29.28.57l2.33,9.88,2.55-9.88c.09-.29.19-.49.29-.57.12-.09.31-.15.57-.15h1.37c.24,0,.37.12.37.37,0,.07-.01.15-.03.24-.01.09-.04.21-.1.37l-3.55,11.39c-.09.29-.19.49-.31.57s-.31.15-.56.15h-1.27c-.28,0-.47-.04-.59-.15s-.22-.29-.28-.59l-2.28-9.51-2.27,9.49c-.07.29-.16.49-.28.59-.12.1-.32.15-.59.15h-1.27ZM65.12,63.86c-.77,0-1.53-.09-2.27-.27-.74-.18-1.31-.37-1.7-.59-.24-.13-.4-.28-.46-.41-.06-.13-.09-.28-.09-.41v-.75c0-.31.12-.46.34-.46.09,0,.18.01.27.04.09.03.22.09.37.15.5.22,1.05.4,1.62.52.59.12,1.16.18,1.75.18.93,0,1.65-.16,2.15-.49.5-.32.77-.8.77-1.4,0-.41-.13-.75-.4-1.03-.27-.28-.77-.53-1.49-.77l-2.14-.66c-1.08-.34-1.87-.84-2.36-1.5-.49-.65-.74-1.37-.74-2.14,0-.62.13-1.16.4-1.64.27-.47.62-.88,1.06-1.21.44-.34.94-.59,1.53-.77.59-.18,1.21-.25,1.86-.25.32,0,.66.01.99.06.34.04.65.1.96.16.29.07.57.15.84.24.27.09.47.18.62.27.21.12.35.24.44.37.09.12.13.28.13.49v.69c0,.31-.12.47-.34.47-.12,0-.31-.06-.56-.18-.84-.38-1.78-.57-2.83-.57-.84,0-1.5.13-1.96.41s-.69.71-.69,1.31c0,.41.15.77.44,1.05.29.28.84.56,1.62.81l2.09.66c1.06.34,1.83.81,2.28,1.42.46.6.68,1.3.68,2.06,0,.63-.13,1.21-.38,1.71-.27.5-.62.94-1.08,1.3-.46.37-1,.63-1.64.83-.66.21-1.36.31-2.11.31Z"/>
          <g>
            <path class="cls-2" d="M67.91,71.02c-4.85,3.58-11.9,5.48-17.95,5.48-8.49,0-16.14-3.14-21.92-8.36-.46-.41-.04-.97.5-.65,6.25,3.63,13.96,5.82,21.93,5.82,5.38,0,11.29-1.12,16.73-3.42.81-.37,1.5.53.71,1.12Z"/>
            <path class="cls-2" d="M69.93,68.73c-.62-.8-4.1-.38-5.67-.19-.47.06-.55-.35-.12-.66,2.77-1.95,7.33-1.39,7.86-.74.53.66-.15,5.22-2.74,7.4-.4.34-.78.16-.6-.28.59-1.46,1.9-4.75,1.28-5.53Z"/>
          </g>
        </g>
      </g>
    </g>
  </g>
</svg>