<?xml version="1.0" encoding="UTF-8"?>
<svg id="Capa_2" data-name="Capa 2" xmlns="http://www.w3.org/2000/svg" width="100" height="100" viewBox="0 0 100 100">
  <defs>
    <style>
      .cls-1 {
        fill: none;
      }

      .cls-1, .cls-2, .cls-3, .cls-4 {
        stroke-width: 0px;
      }

      .cls-2 {
        fill: #00367b;
      }

      .cls-3 {
        fill: #00377d;
      }

      .cls-4 {
        fill: #00c8ff;
      }
    </style>
  </defs>
  <g id="Capa_1-2" data-name="Capa 1">
    <g>
      <rect class="cls-1" width="100" height="100"/>
      <g>
        <path class="cls-2" d="M84.91,37.28c.85,0,1.53-.69,1.53-1.54v-11.9c0-2.67-2.17-4.84-4.84-4.84H17.26c-2.67,0-4.84,2.17-4.84,4.84v43.61c0,2.67,2.17,4.84,4.84,4.84h31.33v5.63H15.65c-.81,0-1.5.61-1.57,1.38-.05.43.1.86.39,1.18.29.32.7.51,1.13.51h67.59c.81,0,1.5-.61,1.57-1.39.04-.43-.1-.86-.39-1.18-.29-.32-.7-.5-1.13-.5h-31.58v-5.63h29.94c2.67,0,4.84-2.17,4.84-4.84v-19.21c0-.85-.69-1.54-1.53-1.54s-1.53.69-1.53,1.54v19.21c0,.98-.8,1.77-1.78,1.77H17.26c-.98,0-1.78-.79-1.78-1.77V23.84c0-.98.8-1.77,1.78-1.77h64.34c.98,0,1.78.79,1.78,1.77v11.9c0,.85.69,1.54,1.53,1.54Z"/>
        <circle class="cls-4" cx="84.96" cy="42.22" r="2.63"/>
        <path class="cls-3" d="M39.17,39.66c-2.08,0-3.46,1.09-3.65,2.73-.05.38-.09.76-.14,1.14h27.05s.05-.4.09-.72c.2-1.65-.5-3.15-3.05-3.15h0s-19.21,0-20.3,0ZM22.66,39.66l-.47,3.87h12.27l.47-3.87h-12.26,0,0ZM63.83,39.66l-.47,3.87h13.3s.02-.14.08-.59c.32-2.54-1.31-3.27-2.89-3.27h-10ZM63.18,45l-1.04,8.44h4.59s1.04-8.44,1.04-8.44h-4.59s0,0,0,0h0ZM71.89,45l-1.04,8.44h4.59s1.04-8.44,1.04-8.44h-4.59s0,0,0,0h0ZM22.01,45l-1.04,8.44h12.27l.45-3.66h-7.68s.19-1.58.19-1.58h7.68l.39-3.2h-12.26s0,0,0,0ZM35.2,45c-.34,2.2.77,3.2,2.33,3.2.85,0,6.21,0,6.21,0l-.19,1.58h-8.93s-.45,3.66-.45,3.66c0,0,9.72,0,10.11,0,.33-.02,2.6-.09,3.37-1.94.25-.6.47-2.77.54-3.22.36-2.64-1.47-3.27-2.91-3.27-.79,0-8.51,0-10.08,0ZM49.48,45l-1.04,8.44h4.59l.65-5.24h5.76c1.63,0,2.51-.88,2.67-2.06.05-.38.1-.76.14-1.14h-12.77s0,0,0,0Z"/>
      </g>
    </g>
  </g>
</svg>