<svg id="e829aY0liCy1" xmlns="http://www.w3.org/2000/svg" xmlns:xlink="http://www.w3.org/1999/xlink" viewBox="0 0 71.23 53.58" shape-rendering="geometricPrecision" text-rendering="geometricPrecision" width="71.23" height="53.58">
<style><![CDATA[
#e829aY0liCy2_to {animation: e829aY0liCy2_to__to 2000ms linear infinite normal forwards}@keyframes e829aY0liCy2_to__to { 0% {transform: translate(22.682765px,26.785688px);animation-timing-function: cubic-bezier(0.42,0,1,1)} 15% {transform: translate(48.52535px,26.785689px)} 45% {transform: translate(48.52535px,26.785689px)} 100% {transform: translate(48.52535px,26.785689px)}} #e829aY0liCy3_to {animation: e829aY0liCy3_to__to 2000ms linear infinite normal forwards}@keyframes e829aY0liCy3_to__to { 0% {transform: translate(22.52535px,26.785689px)} 15% {transform: translate(22.52535px,26.785689px);animation-timing-function: cubic-bezier(0.42,0,1,1)} 30% {transform: translate(48.52535px,26.785689px)} 45% {transform: translate(48.52535px,26.785689px)} 100% {transform: translate(48.52535px,26.785689px)}} #e829aY0liCy3 {animation: e829aY0liCy3_c_o 2000ms linear infinite normal forwards}@keyframes e829aY0liCy3_c_o { 0% {opacity: 0} 15% {opacity: 1} 100% {opacity: 1}} #e829aY0liCy4_to {animation: e829aY0liCy4_to__to 2000ms linear infinite normal forwards}@keyframes e829aY0liCy4_to__to { 0% {transform: translate(22.52535px,26.785689px)} 30% {transform: translate(22.52535px,26.785689px);animation-timing-function: cubic-bezier(0.42,0,1,1)} 45% {transform: translate(48.52535px,26.785689px)} 100% {transform: translate(48.52535px,26.785689px)}} #e829aY0liCy4 {animation: e829aY0liCy4_c_o 2000ms linear infinite normal forwards}@keyframes e829aY0liCy4_c_o { 0% {opacity: 0} 15% {opacity: 0} 30% {opacity: 1} 100% {opacity: 1}} #e829aY0liCy5 {animation: e829aY0liCy5_c_o 2000ms linear infinite normal forwards}@keyframes e829aY0liCy5_c_o { 0% {opacity: 0} 30% {opacity: 0} 45% {opacity: 1} 100% {opacity: 1}} #e829aY0liCy6 {animation: e829aY0liCy6_c_o 2000ms linear infinite normal forwards}@keyframes e829aY0liCy6_c_o { 0% {opacity: 0} 30% {opacity: 1} 100% {opacity: 1}} #e829aY0liCy7 {animation: e829aY0liCy7_c_o 2000ms linear infinite normal forwards}@keyframes e829aY0liCy7_c_o { 0% {opacity: 0} 30% {opacity: 0} 45% {opacity: 1} 100% {opacity: 1}}
]]></style>
<g id="e829aY0liCy2_to" transform="translate(22.682765,26.785688)"><path d="M62.06,13.3c-3.66,0-6.64-2.98-6.64-6.65s2.98-6.65,6.64-6.65s6.64,2.99,6.64,6.65c0,3.67-2.98,6.65-6.64,6.65Zm0-11.56c-2.71,0-4.91,2.2-4.91,4.91s2.2,4.91,4.91,4.91s4.91-2.2,4.91-4.91-2.2-4.91-4.91-4.91ZM26.2,35.09c.41-.89,1.14-1.57,2.06-1.92.92-.34,1.92-.31,2.82.1l6.05,2.78l2.86-6.89-.91-.68c-.19-.14-.31-.34-.34-.57s.02-.46.16-.65l2-2.69c.29-.4.86-.47,1.24-.16.36.29.43.82.15,1.19l-1.48,2l.76.57c.32.24.44.66.28,1.03l-3.47,8.34c-.09.22-.26.39-.48.47-.21.08-.46.08-.68-.02l-6.86-3.15c-.47-.22-1-.24-1.49-.05-.49.18-.87.54-1.09,1.01s-.24,1-.05,1.49c.18.49.54.87,1.02,1.09l7.74,3.64l3.94,1.91l4.99-11.57c.11-.24.31-.43.57-.49.26-.07.52-.02.74.14l1.85,1.38c.05.02.1.05.16.09l5.27,3.89c.22.16.35.42.35.7v11.77c0,.93.63,1.78,1.55,1.97c1.26.26,2.37-.7,2.37-1.91v-15.08l-7.22-4.3c-.21-.12-.36-.33-.41-.57s0-.49.15-.69l4.79-6.45c.22-.3.62-.43.97-.31s.59.45.59.82v5.08h10.73c.76,0,1.45-.51,1.59-1.25.19-1-.57-1.87-1.53-1.87h-7c-.48,0-.87-.39-.87-.87v-6.93l-8.06-5.97h-12.35l-4.04,6.24c-.21.35-.26.77-.15,1.16.11.4.36.73.72.92.71.39,1.57.17,2-.5l2.92-4.1c.16-.23.42-.36.7-.36h6.7c.33,0,.63.19.77.47.15.29.12.64-.08.91L44.86,22.1c-.29.4-.86.47-1.24.16-.36-.29-.43-.82-.15-1.19l3.31-4.46h-4.53l-2.61,3.66c-.92,1.43-2.81,1.9-4.3,1.08-.77-.43-1.33-1.14-1.56-1.99s-.1-1.75.36-2.53l4.3-6.65c.16-.25.43-.4.73-.4h13.11c.18,0,.37.06.51.17l8.64,6.4c.22.16.35.42.35.69v6.5h6.02c1.67,0,3.17,1.2,3.38,2.86.26,2.01-1.31,3.73-3.26,3.73h-11.66c-.48,0-.86-.39-.86-.86v-3.33l-2.66,3.58l6.81,4.06c.26.15.42.44.42.74v15.44c0,1.87-1.34,3.55-3.2,3.78-2.25.29-4.17-1.46-4.17-3.66v-11.39l-4.77-3.52c-.06-.03-.11-.06-.16-.1l-1.12-.83-4.91,11.4c-.1.22-.28.38-.49.47-.23.08-.46.07-.68-.03l-4.75-2.29L28,39.96c-.89-.41-1.57-1.14-1.92-2.06s-.31-1.92.1-2.81h.02Z" transform="translate(-48.52535,-26.785688)" fill="#ffbe00" stroke-width="0"/></g><g id="e829aY0liCy3_to" transform="translate(22.52535,26.785689)"><path id="e829aY0liCy3" d="M62.06,13.3c-3.66,0-6.64-2.98-6.64-6.65s2.98-6.65,6.64-6.65s6.64,2.99,6.64,6.65c0,3.67-2.98,6.65-6.64,6.65Zm0-11.56c-2.71,0-4.91,2.2-4.91,4.91s2.2,4.91,4.91,4.91s4.91-2.2,4.91-4.91-2.2-4.91-4.91-4.91ZM26.2,35.09c.41-.89,1.14-1.57,2.06-1.92.92-.34,1.92-.31,2.82.1l6.05,2.78l2.86-6.89-.91-.68c-.19-.14-.31-.34-.34-.57s.02-.46.16-.65l2-2.69c.29-.4.86-.47,1.24-.16.36.29.43.82.15,1.19l-1.48,2l.76.57c.32.24.44.66.28,1.03l-3.47,8.34c-.09.22-.26.39-.48.47-.21.08-.46.08-.68-.02l-6.86-3.15c-.47-.22-1-.24-1.49-.05-.49.18-.87.54-1.09,1.01s-.24,1-.05,1.49c.18.49.54.87,1.02,1.09l7.74,3.64l3.94,1.91l4.99-11.57c.11-.24.31-.43.57-.49.26-.07.52-.02.74.14l1.85,1.38c.05.02.1.05.16.09l5.27,3.89c.22.16.35.42.35.7v11.77c0,.93.63,1.78,1.55,1.97c1.26.26,2.37-.7,2.37-1.91v-15.08l-7.22-4.3c-.21-.12-.36-.33-.41-.57s0-.49.15-.69l4.79-6.45c.22-.3.62-.43.97-.31s.59.45.59.82v5.08h10.73c.76,0,1.45-.51,1.59-1.25.19-1-.57-1.87-1.53-1.87h-7c-.48,0-.87-.39-.87-.87v-6.93l-8.06-5.97h-12.35l-4.04,6.24c-.21.35-.26.77-.15,1.16.11.4.36.73.72.92.71.39,1.57.17,2-.5l2.92-4.1c.16-.23.42-.36.7-.36h6.7c.33,0,.63.19.77.47.15.29.12.64-.08.91L44.86,22.1c-.29.4-.86.47-1.24.16-.36-.29-.43-.82-.15-1.19l3.31-4.46h-4.53l-2.61,3.66c-.92,1.43-2.81,1.9-4.3,1.08-.77-.43-1.33-1.14-1.56-1.99s-.1-1.75.36-2.53l4.3-6.65c.16-.25.43-.4.73-.4h13.11c.18,0,.37.06.51.17l8.64,6.4c.22.16.35.42.35.69v6.5h6.02c1.67,0,3.17,1.2,3.38,2.86.26,2.01-1.31,3.73-3.26,3.73h-11.66c-.48,0-.86-.39-.86-.86v-3.33l-2.66,3.58l6.81,4.06c.26.15.42.44.42.74v15.44c0,1.87-1.34,3.55-3.2,3.78-2.25.29-4.17-1.46-4.17-3.66v-11.39l-4.77-3.52c-.06-.03-.11-.06-.16-.1l-1.12-.83-4.91,11.4c-.1.22-.28.38-.49.47-.23.08-.46.07-.68-.03l-4.75-2.29L28,39.96c-.89-.41-1.57-1.14-1.92-2.06s-.31-1.92.1-2.81h.02Z" transform="translate(-48.52535,-26.785688)" opacity="0" fill="#00c8ff" stroke-width="0"/></g><g id="e829aY0liCy4_to" transform="translate(22.52535,26.785689)"><path id="e829aY0liCy4" d="M62.06,13.3c-3.66,0-6.64-2.98-6.64-6.65s2.98-6.65,6.64-6.65s6.64,2.99,6.64,6.65c0,3.67-2.98,6.65-6.64,6.65Zm0-11.56c-2.71,0-4.91,2.2-4.91,4.91s2.2,4.91,4.91,4.91s4.91-2.2,4.91-4.91-2.2-4.91-4.91-4.91ZM26.2,35.09c.41-.89,1.14-1.57,2.06-1.92.92-.34,1.92-.31,2.82.1l6.05,2.78l2.86-6.89-.91-.68c-.19-.14-.31-.34-.34-.57s.02-.46.16-.65l2-2.69c.29-.4.86-.47,1.24-.16.36.29.43.82.15,1.19l-1.48,2l.76.57c.32.24.44.66.28,1.03l-3.47,8.34c-.09.22-.26.39-.48.47-.21.08-.46.08-.68-.02l-6.86-3.15c-.47-.22-1-.24-1.49-.05-.49.18-.87.54-1.09,1.01s-.24,1-.05,1.49c.18.49.54.87,1.02,1.09l7.74,3.64l3.94,1.91l4.99-11.57c.11-.24.31-.43.57-.49.26-.07.52-.02.74.14l1.85,1.38c.05.02.1.05.16.09l5.27,3.89c.22.16.35.42.35.7v11.77c0,.93.63,1.78,1.55,1.97c1.26.26,2.37-.7,2.37-1.91v-15.08l-7.22-4.3c-.21-.12-.36-.33-.41-.57s0-.49.15-.69l4.79-6.45c.22-.3.62-.43.97-.31s.59.45.59.82v5.08h10.73c.76,0,1.45-.51,1.59-1.25.19-1-.57-1.87-1.53-1.87h-7c-.48,0-.87-.39-.87-.87v-6.93l-8.06-5.97h-12.35l-4.04,6.24c-.21.35-.26.77-.15,1.16.11.4.36.73.72.92.71.39,1.57.17,2-.5l2.92-4.1c.16-.23.42-.36.7-.36h6.7c.33,0,.63.19.77.47.15.29.12.64-.08.91L44.86,22.1c-.29.4-.86.47-1.24.16-.36-.29-.43-.82-.15-1.19l3.31-4.46h-4.53l-2.61,3.66c-.92,1.43-2.81,1.9-4.3,1.08-.77-.43-1.33-1.14-1.56-1.99s-.1-1.75.36-2.53l4.3-6.65c.16-.25.43-.4.73-.4h13.11c.18,0,.37.06.51.17l8.64,6.4c.22.16.35.42.35.69v6.5h6.02c1.67,0,3.17,1.2,3.38,2.86.26,2.01-1.31,3.73-3.26,3.73h-11.66c-.48,0-.86-.39-.86-.86v-3.33l-2.66,3.58l6.81,4.06c.26.15.42.44.42.74v15.44c0,1.87-1.34,3.55-3.2,3.78-2.25.29-4.17-1.46-4.17-3.66v-11.39l-4.77-3.52c-.06-.03-.11-.06-.16-.1l-1.12-.83-4.91,11.4c-.1.22-.28.38-.49.47-.23.08-.46.07-.68-.03l-4.75-2.29L28,39.96c-.89-.41-1.57-1.14-1.92-2.06s-.31-1.92.1-2.81h.02Z" transform="translate(-48.52535,-26.785688)" opacity="0" fill="#00367b" stroke-width="0"/></g><g id="e829aY0liCy5" transform="translate(0 0.000001)" opacity="0"><line id="e829aY0liCy6" x1="21.88" y1="36.33" x2="1" y2="36.33" opacity="0" fill="none" stroke="#00367b" stroke-width="2" stroke-linecap="round" stroke-miterlimit="10"/><line id="e829aY0liCy7" x1="30.24" y1="26.5" x2="15.25" y2="26.5" opacity="0" fill="none" stroke="#00367b" stroke-width="2" stroke-linecap="round" stroke-miterlimit="10"/><line x1="25.82" y1="18.14" x2="9.11" y2="18.14" fill="none" stroke="#00367b" stroke-width="2" stroke-linecap="round" stroke-miterlimit="10"/></g></svg>
