<?xml version="1.0" encoding="UTF-8"?>
<svg xmlns="http://www.w3.org/2000/svg" version="1.1" viewBox="0 0 294.2 70.3">
  <defs>
    <style>
      .cls-1 {
        fill: #001eb4;
      }
    </style>
  </defs>
  <!-- Generator: Adobe Illustrator 28.6.0, SVG Export Plug-In . SVG Version: 1.2.0 Build 709)  -->
  <g>
    <g id="Capa_1">
      <g id="Capa_1-2" data-name="Capa_1">
        <g id="Capa_2">
          <g id="Capa_1-2">
            <g>
              <path id="Path" class="cls-1" d="M16.7,32.2c-6.7,0-10.8-5.4-10.8-11.4s4-11,10.7-11,8.8,3.4,8.8,3.4l2.8-4.3s-4-4.3-11.8-4.3S0,11.5,0,20.8s6.7,16.7,16.5,16.7,12.5-5.2,12.5-5.2l-3-4.2s-3.8,4.1-9.4,4.1c0,0,.1,0,.1,0Z"/>
              <path id="Shape" class="cls-1" d="M47.1,4.5c-9.5,0-16.5,7.2-16.5,16.3s7.2,16.7,16.5,16.7,16.4-7.3,16.4-16.7-7.1-16.3-16.4-16.3ZM47.1,32.2c-5.9,0-10.5-4.9-10.5-11.4s4.7-11,10.5-11,10.4,4.7,10.4,11-4.7,11.4-10.4,11.4Z"/>
              <path id="Shape-2" class="cls-1" d="M254.3,4.5c-9.5,0-16.5,7.2-16.5,16.3s7.2,16.7,16.5,16.7,16.4-7.3,16.4-16.7-7.1-16.3-16.4-16.3h0ZM254.3,32.2c-5.9,0-10.5-4.9-10.5-11.4s4.7-11,10.5-11,10.4,4.7,10.4,11-4.7,11.4-10.4,11.4h0Z"/>
              <path id="Path-2" class="cls-1" d="M105.9,23.3h10.8v-4.9h-10.8v-8.4h13.3v-5h-19.2v13.3h-6.9V4.9h-5.8v18.5c0,1.9.4,4.9.4,4.9h0s-1.4-3.1-2.6-4.9l-12.1-18.5h-5.8v31.9h5.8v-18.3c0-1.9-.4-4.9-.4-4.9h0s1.4,3.1,2.6,4.9l12.1,18.3h5.8v-13.5h6.9v13.5h19.9v-4.9h-14v-8.6h0Z"/>
              <path id="Path-3" class="cls-1" d="M138,32.2c-6.7,0-10.8-5.4-10.8-11.4s4-11,10.7-11,8.8,3.4,8.8,3.4l2.8-4.3s-4-4.3-11.8-4.3-16.4,7.2-16.4,16.4,6.7,16.7,16.5,16.7,12.5-5.2,12.5-5.2l-3-4.2c0-.1-3.7,4-9.2,4h0Z"/>
              <polygon id="Path-4" class="cls-1" points="178.8 4.9 152 4.9 152 10 162.6 10 162.6 37 168.3 37 168.3 10 178.8 10 178.8 4.9"/>
              <path id="Shape-2-2" class="cls-1" d="M186.7,4.9l-11.3,31.9h6l2.8-8.1h11.3l2.8,8.1h6l-11.3-31.9s-6.3,0-6.3,0ZM185.5,24l2.8-8.5c.6-1.8,1.3-4.9,1.3-4.9h.1s.6,3.1,1.3,4.9l2.8,8.5c.1,0-8.3,0-8.3,0h0Z"/>
              <path id="Shape-3" class="cls-1" d="M218.2,4.9h-10.9v31.9h10.9c9.8,0,16.3-6,16.3-16.1s-6.4-15.8-16.3-15.8h0ZM217.9,31.9h-4.7V10h4.7c6.5,0,10.6,3.8,10.6,10.9.1,7.2-4.1,11-10.6,11Z"/>
              <path id="Path-5" class="cls-1" d="M279.1,13.6c0-2.3,2-3.8,4.8-3.8,4,0,7.1,2.8,7.1,2.8l2.5-4.7s-3.2-3.5-9.6-3.5-10.7,4-10.7,9.2c0,9.8,15.1,8.9,15.1,14.5s-2.2,3.8-4.7,3.8c-4.4,0-7.9-3.4-7.9-3.4l-3.1,4.3s4,4.3,11,4.3,10.5-4.2,10.5-9.4c0-9.9-15.1-8.5-15.1-14.3h0v.2h.1Z"/>
            </g>
            <g>
              <path class="cls-1" d="M7.2,64.1c-1.3,0-2.4-.3-3.5-.9-1-.6-1.9-1.5-2.5-2.6s-.9-2.4-.9-3.8.3-2.8.9-3.9c.6-1.1,1.4-2,2.5-2.6s2.2-.9,3.5-.9,3,.4,4.1,1.3c1.1.8,1.8,2,2.1,3.4h-2c-.2-.9-.7-1.7-1.5-2.2s-1.7-.8-2.8-.8-1.7.2-2.4.6c-.7.4-1.3,1-1.8,1.9-.5.8-.7,1.9-.7,3.2s0,1.8.4,2.5c.3.7.6,1.3,1.1,1.8s1,.8,1.5,1.1c.6.2,1.2.4,1.8.4s1.3,0,1.9-.3,1.1-.6,1.5-1,.7-1,.8-1.6h2c-.3,1.4-1,2.5-2.1,3.3-1.1.9-2.5,1.3-4.1,1.3h0s.2-.2.2-.2Z"/>
              <path class="cls-1" d="M22.7,64.1c-1.3,0-2.5-.3-3.5-.9-1-.6-1.9-1.5-2.5-2.6s-.9-2.4-.9-3.9.3-2.8.9-4c.6-1.1,1.4-2,2.5-2.6,1-.6,2.2-.9,3.5-.9s2.5.3,3.6.9c1,.6,1.8,1.5,2.4,2.6s.9,2.4.9,4-.3,2.8-.9,3.9-1.4,2-2.5,2.6c-1,.6-2.2.9-3.6.9h.1ZM22.7,62.4c.9,0,1.7-.2,2.4-.6s1.3-1.1,1.8-1.9.7-1.9.7-3.2-.2-2.3-.7-3.2-1-1.5-1.8-1.9-1.5-.6-2.4-.6-1.6.2-2.4.6c-.8.4-1.4,1.1-1.8,1.9-.5.8-.7,1.9-.7,3.2s.2,2.3.7,3.2c.5.8,1,1.5,1.8,1.9s1.5.6,2.4.6h0Z"/>
              <path class="cls-1" d="M32.7,63.7v-14.1h1.8v2.5c.6-.9,1.2-1.6,2.1-2.1.8-.5,1.8-.8,2.8-.8s2,.2,2.8.6c.8.4,1.4,1.1,1.9,2s.7,2,.7,3.3v8.5h-2v-8.3c0-1.5-.3-2.6-1-3.3s-1.6-1.1-2.8-1.1-1.6.2-2.2.6c-.7.4-1.2,1-1.6,1.8s-.6,1.7-.6,2.8v7.6h-2,0Z"/>
              <path class="cls-1" d="M61.7,64.1c-1.3,0-2.5-.3-3.5-.9-1-.6-1.8-1.5-2.3-2.6s-.8-2.4-.8-3.9.3-2.8.8-3.9,1.3-2,2.4-2.6c1-.6,2.2-.9,3.5-.9s2.5.3,3.5.9c.9.6,1.7,1.4,2.2,2.4s.7,2.1.7,3.2v1.3h-11.6v-1.7h9.7c0-1.4-.5-2.5-1.4-3.3-.8-.8-1.9-1.2-3.2-1.2s-1.6.2-2.3.6c-.7.4-1.3.9-1.8,1.7s-.7,1.7-.7,2.8v.7c0,1.3.2,2.3.7,3.2s1,1.5,1.8,1.9,1.5.6,2.3.6,1.9-.2,2.6-.7c.7-.5,1.2-1.1,1.5-2h1.9c-.2.8-.6,1.6-1.2,2.2-.5.7-1.2,1.2-2,1.6s-1.8.6-2.9.6h.1Z"/>
              <path class="cls-1" d="M71,63.7v-20.2h2v20.2h-2Z"/>
              <path class="cls-1" d="M84.1,63.7v-14.1h1.8v2.5c.6-.9,1.2-1.6,2.1-2.1s1.8-.8,2.8-.8,2,.2,2.8.6c.8.4,1.4,1.1,1.9,2s.7,2,.7,3.3v8.5h-2v-8.3c0-1.5-.3-2.6-1-3.3s-1.6-1.1-2.8-1.1-1.6.2-2.2.6c-.7.4-1.2,1-1.6,1.8s-.6,1.7-.6,2.8v7.6h-2,0Z"/>
              <path class="cls-1" d="M105.6,64.1c-1.3,0-2.5-.3-3.5-.9-1-.6-1.8-1.5-2.3-2.6s-.8-2.4-.8-3.9.3-2.8.8-3.9,1.3-2,2.4-2.6c1-.6,2.2-.9,3.5-.9s2.5.3,3.5.9c.9.6,1.7,1.4,2.2,2.4s.7,2.1.7,3.2v1.3h-11.6v-1.7h9.7c0-1.4-.5-2.5-1.4-3.3-.8-.8-1.9-1.2-3.2-1.2s-1.6.2-2.3.6c-.7.4-1.3.9-1.8,1.7s-.7,1.7-.7,2.8v.7c0,1.3.2,2.3.7,3.2s1.1,1.5,1.8,1.9c.7.4,1.5.6,2.3.6s1.9-.2,2.6-.7,1.2-1.1,1.5-2h1.9c-.2.8-.6,1.6-1.2,2.2-.5.7-1.2,1.2-2,1.6s-1.8.6-2.9.6h.1Z"/>
              <path class="cls-1" d="M120.4,70.2c-1.2,0-2.4-.2-3.3-.5-1-.3-1.7-.8-2.3-1.5s-.8-1.5-.8-2.5,0-.8.2-1.3.4-.9.8-1.4,1-.9,1.7-1.3l1.6.7c-1,.5-1.6,1-1.9,1.5-.3.6-.4,1.1-.4,1.5,0,.7.2,1.2.6,1.7s.9.8,1.6,1,1.4.3,2.3.3,1.6,0,2.2-.4c.6-.2,1.1-.6,1.4-1.1s.5-1,.5-1.6-.3-1.3-.8-1.8-1.5-.8-2.9-.8-2.1-.2-2.8-.3c-.7,0-1.3-.3-1.8-.5s-.9-.4-1.2-.6-.6-.4-.9-.7v-.6l2.7-2.5,1.8.6-2.6,2.3.2-.8c.2.2.4.3.6.4.2,0,.4.2.8.3.3,0,.8.2,1.4.2s1.4.2,2.4.2,2.3.3,3.1.7c.8.3,1.3.8,1.7,1.4s.5,1.3.5,2.1-.2,1.6-.7,2.3-1.1,1.3-2,1.8-2.1.7-3.5.7h0l-.2.5h0ZM120.4,59.3c-1.2,0-2.2-.2-3-.7s-1.4-1-1.9-1.8c-.4-.8-.6-1.6-.6-2.5s.2-1.8.6-2.5,1.1-1.3,1.9-1.8,1.8-.7,3-.7,2.2.2,3,.7,1.4,1,1.8,1.8.6,1.6.6,2.5-.2,1.8-.6,2.5-1,1.4-1.8,1.8-1.8.7-3,.7h0ZM120.4,57.6c1.1,0,1.9-.3,2.6-.8.6-.6.9-1.4.9-2.5s-.3-1.9-.9-2.5-1.5-.8-2.6-.8-1.9.3-2.6.8-1,1.4-1,2.5.3,1.9.9,2.5,1.5.8,2.6.8h0ZM122.7,51.4l-.7-1.8h5.7v1.6l-5,.2h0Z"/>
              <path class="cls-1" d="M135.8,64.1c-1.3,0-2.4-.3-3.5-.9-1-.6-1.9-1.5-2.4-2.6-.6-1.1-.9-2.4-.9-3.9s.3-2.8.9-4c.6-1.1,1.4-2,2.5-2.6s2.2-.9,3.5-.9,2.5.3,3.6.9,1.8,1.5,2.4,2.6c.6,1.1.9,2.4.9,4s-.3,2.8-.9,3.9-1.4,2-2.5,2.6c-1,.6-2.2.9-3.6.9h0ZM135.8,62.4c.9,0,1.7-.2,2.4-.6s1.3-1.1,1.8-1.9.7-1.9.7-3.2-.2-2.3-.7-3.2-1-1.5-1.8-1.9-1.5-.6-2.4-.6-1.6.2-2.4.6-1.4,1.1-1.8,1.9c-.5.8-.7,1.9-.7,3.2s.2,2.3.7,3.2c.4.8,1,1.5,1.8,1.9s1.5.6,2.4.6h0Z"/>
              <path class="cls-1" d="M152.1,64.1c-1.3,0-2.4-.3-3.5-.9-1-.6-1.9-1.5-2.4-2.6-.6-1.1-.9-2.4-.9-3.8s.3-2.8.9-3.9c.6-1.1,1.4-2,2.4-2.6s2.2-.9,3.5-.9,3,.4,4.1,1.3c1.1.8,1.8,2,2.1,3.4h-2c-.2-.9-.7-1.7-1.5-2.2s-1.7-.8-2.8-.8-1.6.2-2.4.6c-.7.4-1.3,1-1.8,1.9-.4.8-.7,1.9-.7,3.2s.1,1.8.4,2.5c.3.7.6,1.3,1.1,1.8s1,.8,1.5,1.1c.6.2,1.2.4,1.8.4s1.3,0,1.9-.3,1.1-.6,1.5-1,.7-1,.8-1.6h2c-.3,1.4-1,2.5-2.1,3.3s-2.5,1.3-4.1,1.3h0s.2-.2.2-.2Z"/>
              <path class="cls-1" d="M162.6,46.3c-.4,0-.7,0-1-.4s-.4-.6-.4-1,.1-.8.4-1,.6-.4,1-.4.7,0,1,.4.4.6.4,1-.1.8-.4,1-.6.4-1,.4ZM161.6,63.7v-14.1h2v14.1s-2,0-2,0Z"/>
              <path class="cls-1" d="M173.7,64.1c-1.3,0-2.4-.3-3.5-.9-1-.6-1.9-1.5-2.4-2.6-.6-1.1-.9-2.4-.9-3.9s.3-2.8.9-4c.6-1.1,1.4-2,2.5-2.6s2.2-.9,3.5-.9,2.5.3,3.6.9,1.8,1.5,2.4,2.6c.6,1.1.9,2.4.9,4s-.3,2.8-.9,3.9-1.4,2-2.5,2.6c-1,.6-2.2.9-3.6.9h0ZM173.8,62.4c.9,0,1.7-.2,2.4-.6s1.3-1.1,1.8-1.9.7-1.9.7-3.2-.2-2.3-.7-3.2-1-1.5-1.8-1.9-1.5-.6-2.4-.6-1.6.2-2.4.6-1.4,1.1-1.8,1.9c-.5.8-.7,1.9-.7,3.2s.2,2.3.7,3.2c.4.8,1,1.5,1.8,1.9s1.5.6,2.4.6h0Z"/>
            </g>
          </g>
        </g>
      </g>
    </g>
  </g>
</svg>