<?xml version="1.0" encoding="UTF-8"?>
<svg xmlns="http://www.w3.org/2000/svg" version="1.1" viewBox="0 0 268.8 165.6">
  <defs>
    <style>
      .cls-1 {
        fill: #001eb4;
      }

      .cls-2 {
        stroke: #001eb4;
      }

      .cls-2, .cls-3 {
        fill: none;
        stroke-miterlimit: 10;
        stroke-width: 1px;
      }

      .cls-3 {
        stroke: #44c8f5;
      }
    </style>
  </defs>
  <!-- Generator: Adobe Illustrator 28.6.0, SVG Export Plug-In . SVG Version: 1.2.0 Build 709)  -->
  <g>
    <g id="Capa_2">
      <g id="Capa_3">
        <g>
          <g>
            <path class="cls-1" d="M78,116.8v-21.7h5.3l.4,3.5c.7-1.2,1.6-2.2,2.8-2.9,1.2-.7,2.7-1.1,4.4-1.1s3.3.4,4.5,1.1,2.2,1.8,2.8,3.3c.6,1.4,1,3.2,1,5.3v12.5h-6v-11.9c0-1.7-.3-2.9-1.1-3.8-.7-.9-1.8-1.3-3.3-1.3s-1.8.2-2.5.7c-.8.4-1.3,1.1-1.7,1.9s-.6,1.8-.6,3v11.6h-6Z"/>
            <path class="cls-1" d="M111,117.3c-1.8,0-3.2-.4-4.5-1.1s-2.2-1.8-2.9-3.2-1-3.2-1-5.3v-12.6h6v11.9c0,1.7.3,3,1.1,3.8.7.9,1.8,1.3,3.3,1.3s1.8-.2,2.5-.6,1.3-1.1,1.7-1.9c.4-.8.6-1.8.6-3v-11.6h6v21.7h-5.3l-.5-3.5c-.6,1.2-1.6,2.2-2.8,2.9s-2.7,1.1-4.4,1.1h0Z"/>
            <path class="cls-1" d="M138.1,117.3c-2.2,0-4.1-.5-5.8-1.4s-3-2.2-3.9-3.9-1.4-3.6-1.4-5.8.5-4.2,1.4-5.9c.9-1.7,2.2-3.1,3.9-4.1,1.7-1,3.6-1.5,5.9-1.5s4,.5,5.6,1.4,2.9,2.2,3.8,3.8,1.4,3.4,1.4,5.5,0,.6,0,.9c0,.3,0,.7-.1,1.1h-17.5v-3.7h11.6c0-1.3-.6-2.4-1.4-3.2-.9-.8-2-1.2-3.2-1.2s-1.9.2-2.7.7-1.4,1.1-1.9,2-.7,2-.7,3.4v1.2c0,1.1.2,2.1.6,2.9.4.8,1,1.5,1.8,2s1.7.7,2.7.7,1.9-.2,2.6-.6,1.2-1,1.5-1.7h6.1c-.4,1.3-1.1,2.6-2,3.7-1,1.1-2.1,2-3.5,2.6s-2.9,1-4.6,1h0Z"/>
            <path class="cls-1" d="M160.5,117.3c-2,0-3.7-.3-5.2-1s-2.6-1.5-3.4-2.6c-.8-1.1-1.3-2.4-1.5-3.8h6c.1.5.3,1,.7,1.4s.8.8,1.3,1,1.2.4,2,.4,1.4-.1,1.8-.3.8-.5,1.1-.8.4-.7.4-1.1c0-.6-.2-1-.5-1.3-.3-.3-.8-.6-1.5-.8s-1.4-.4-2.4-.6c-1-.2-2-.5-3-.8-1-.3-1.9-.7-2.7-1.1s-1.4-1.1-1.9-1.8c-.5-.7-.7-1.6-.7-2.7s.4-2.4,1.1-3.5,1.7-1.8,3.1-2.4,2.9-.9,4.8-.9c2.6,0,4.7.6,6.2,1.8s2.4,2.8,2.7,4.8h-5.7c-.1-.6-.5-1.1-1.1-1.5s-1.3-.5-2.3-.5-1.7.2-2.3.5-.8.8-.8,1.4.2.7.5,1,.8.6,1.5.8,1.4.4,2.4.6c1.7.3,3.2.7,4.4,1.2s2.2,1.1,3,1.9c.7.8,1.1,2,1.1,3.6,0,1.4-.3,2.6-1.1,3.7-.8,1.1-1.8,1.9-3.2,2.5-1.4.6-3,.9-4.9.9h0Z"/>
            <path class="cls-1" d="M182.3,116.8c-1.5,0-2.9-.2-4-.7-1.2-.5-2.1-1.3-2.7-2.4s-.9-2.6-.9-4.6v-8.9h-3.7v-5h3.7l.6-6h5.3v6h5.7v5h-5.6v9c0,.9.2,1.6.6,2,.4.4,1.1.6,2.1.6h2.8v5.1h-3.9,0Z"/>
            <path class="cls-1" d="M189.4,116.8v-21.7h5.3l.6,4c.5-.9,1.2-1.8,2-2.4.8-.7,1.7-1.2,2.7-1.6,1-.4,2.1-.6,3.4-.6v6.4h-2c-.9,0-1.6,0-2.4.3-.7.2-1.4.5-1.9,1-.5.4-.9,1.1-1.2,1.8-.3.8-.4,1.7-.4,2.9v9.9h-6Z"/>
            <path class="cls-1" d="M215.6,117.3c-2.1,0-3.9-.5-5.6-1.4s-3-2.3-3.9-4-1.4-3.7-1.4-5.8.5-4.2,1.4-5.9,2.3-3.1,3.9-4c1.7-1,3.5-1.4,5.6-1.4s4,.5,5.6,1.4,3,2.3,3.9,4c1,1.7,1.4,3.7,1.4,5.9s-.5,4.2-1.5,5.9c-1,1.7-2.3,3-3.9,4-1.6,1-3.5,1.4-5.6,1.4h0ZM215.6,112.1c.9,0,1.8-.2,2.5-.7.7-.5,1.3-1.2,1.7-2.1.4-.9.7-2.1.7-3.4s-.2-2.5-.6-3.4c-.4-.9-1-1.6-1.7-2.1-.7-.5-1.6-.7-2.5-.7s-1.7.2-2.4.7-1.3,1.2-1.8,2.1c-.4.9-.6,2.1-.6,3.4s.2,2.5.6,3.4,1,1.6,1.7,2.1c.7.5,1.5.7,2.4.7h0Z"/>
            <path class="cls-1" d="M90.9,164.3c-1.1,0-2.1-.1-3-.4s-1.6-.6-2.3-1.1c-.7-.5-1.2-1.1-1.7-1.7l-.7,2.7h-5.3v-30.9h6v12.2c.7-1,1.6-1.8,2.7-2.5,1.1-.7,2.5-1,4.2-1s3.8.5,5.3,1.5c1.6,1,2.8,2.3,3.7,4,.9,1.7,1.3,3.7,1.3,5.9s-.4,4.1-1.3,5.8-2.1,3.1-3.7,4-3.3,1.5-5.3,1.5h0ZM89.4,159.1c1.1,0,2.1-.3,2.9-.8s1.5-1.2,2-2.1.7-2,.7-3.1-.2-2.3-.7-3.2c-.5-.9-1.2-1.6-2-2.2-.9-.5-1.8-.8-2.9-.8s-2.1.3-2.9.8c-.8.5-1.5,1.2-2,2.1s-.7,2-.7,3.2.2,2.3.7,3.2c.5.9,1.2,1.6,2,2.1s1.8.8,2.9.8Z"/>
            <path class="cls-1" d="M114.3,164.3c-2.1,0-3.9-.5-5.6-1.4s-3-2.3-3.9-4-1.4-3.7-1.4-5.8.5-4.2,1.4-5.9,2.3-3.1,3.9-4,3.5-1.4,5.6-1.4,4,.5,5.6,1.4c1.7,1,3,2.3,3.9,4,1,1.7,1.4,3.7,1.4,5.9s-.5,4.2-1.5,5.9c-1,1.7-2.3,3-3.9,4-1.7,1-3.5,1.4-5.7,1.4h0ZM114.3,159.1c.9,0,1.8-.2,2.5-.7.7-.5,1.3-1.1,1.7-2.1.4-.9.7-2.1.7-3.4s-.2-2.5-.6-3.4c-.4-.9-1-1.6-1.7-2.1-.7-.5-1.6-.7-2.5-.7s-1.7.2-2.4.7-1.3,1.1-1.8,2.1c-.4.9-.6,2.1-.6,3.4s.2,2.5.6,3.4,1,1.6,1.7,2.1c.7.5,1.5.7,2.4.7h0Z"/>
            <path class="cls-1" d="M128.4,163.8v-30.9h6v30.9h-6Z"/>
            <path class="cls-1" d="M148.6,164.3c-2.2,0-4.1-.5-5.8-1.4s-3-2.2-3.9-3.9-1.4-3.6-1.4-5.8.5-4.2,1.4-5.9,2.2-3.1,3.9-4.1c1.7-1,3.6-1.5,5.9-1.5s4,.5,5.6,1.4,2.9,2.2,3.8,3.8,1.4,3.4,1.4,5.5,0,.6,0,.9c0,.3,0,.7-.1,1.1h-17.5v-3.6h11.6c0-1.3-.6-2.4-1.4-3.2-.9-.8-2-1.2-3.2-1.2s-1.9.2-2.7.7-1.4,1.1-1.9,2-.7,2-.7,3.4v1.2c0,1.1.2,2.1.6,2.9.4.9,1,1.5,1.8,2s1.7.7,2.7.7,1.9-.2,2.6-.6,1.2-1,1.5-1.7h6.1c-.4,1.4-1.1,2.6-2,3.6-1,1.1-2.1,2-3.5,2.6s-2.9,1-4.6,1h0Z"/>
            <path class="cls-1" d="M172,163.8c-1.5,0-2.9-.2-4-.7-1.2-.5-2.1-1.3-2.7-2.4s-.9-2.6-.9-4.6v-8.9h-3.7v-5h3.7l.6-6h5.3v6h5.7v5h-5.6v9c0,.9.2,1.6.6,2,.4.4,1.1.6,2.1.6h2.8v5.1h-3.9,0Z"/>
            <path class="cls-1" d="M177.2,140.3l-.6-3.9,9.5-5.4.7,4.6-9.6,4.8h0ZM178.8,163.8v-21.7h6v21.7h-6Z"/>
            <path class="cls-1" d="M188.9,163.8v-21.7h5.3l.4,3.5c.7-1.2,1.6-2.2,2.8-2.9,1.2-.7,2.7-1.1,4.4-1.1s3.3.4,4.5,1.1,2.2,1.9,2.8,3.3c.6,1.4,1,3.2,1,5.3v12.5h-6v-11.9c0-1.7-.4-2.9-1.1-3.9-.7-.9-1.8-1.4-3.3-1.4s-1.8.2-2.5.7c-.8.4-1.3,1.1-1.7,1.9s-.6,1.8-.6,3v11.6h-6,0Z"/>
          </g>
          <g>
            <path class="cls-1" d="M58.2,31.7V6.5h-8.8V1.6h23.5v4.9h-8.8v25.2h-6,0Z"/>
            <path class="cls-1" d="M81.6,32.2c-2.2,0-4.1-.5-5.8-1.4s-3-2.2-3.9-3.9-1.4-3.6-1.4-5.8.5-4.2,1.4-5.9,2.2-3.1,3.9-4.1,3.6-1.5,5.9-1.5,4,.5,5.7,1.4,2.9,2.2,3.8,3.8c.9,1.6,1.3,3.5,1.3,5.5s0,.6,0,1c0,.3,0,.7-.1,1.1h-17.5v-3.6h11.6c0-1.3-.6-2.4-1.4-3.2-.9-.8-2-1.2-3.2-1.2s-1.9.2-2.7.7-1.4,1.1-1.9,2-.7,2-.7,3.4v1.2c0,1.1.2,2.1.6,2.9.4.9,1,1.5,1.8,2,.8.5,1.7.7,2.7.7s1.9-.2,2.6-.6,1.2-1,1.5-1.7h6.1c-.4,1.4-1.1,2.6-2,3.6s-2.1,2-3.5,2.6-2.9,1-4.6,1h0Z"/>
            <path class="cls-1" d="M60.5,84.8c-2.1,0-3.9-.2-5.4-.8-1.5-.5-2.7-1.3-3.6-2.3-.8-1-1.3-2.3-1.3-3.8s.3-2,.8-2.9,1.3-1.7,2.3-2.4c1-.7,2.3-1.3,3.8-1.8l2.2,3c-1.3.4-2.3.9-2.9,1.6s-.9,1.3-.9,2.1.2,1.2.6,1.6,1,.8,1.7,1,1.5.3,2.5.3,1.7-.1,2.3-.3,1.2-.5,1.6-1c.4-.4.6-.9.6-1.5s-.3-1.4-.8-1.8c-.5-.5-1.6-.8-3.2-.9-1.4-.1-2.7-.3-3.8-.5s-2.1-.5-3-.8-1.6-.6-2.2-1c-.6-.4-1.1-.7-1.4-1.1v-1l4.6-5,4.2,1.3-5.5,5.5,1.8-3c.3.2.6.3.9.5.3.2.7.3,1.1.4s1,.2,1.8.3,1.7.2,2.8.3c1.9.2,3.4.5,4.6,1.1,1.2.5,2.1,1.2,2.7,2.2.6.9.9,2,.9,3.3s-.3,2.5-1.1,3.6c-.7,1.1-1.8,2.1-3.2,2.8s-3.3,1.1-5.6,1.1h0ZM60.5,68.5c-1.8,0-3.4-.3-4.7-1.1-1.3-.7-2.3-1.7-3-2.8-.7-1.2-1-2.5-1-4s.3-2.8,1-4c.7-1.2,1.7-2.1,3-2.9s2.9-1.1,4.7-1.1,3.4.4,4.7,1.1c1.3.7,2.3,1.7,3,2.9.7,1.2,1,2.5,1,4s-.3,2.8-1,4-1.7,2.1-3,2.8c-1.3.7-2.9,1.1-4.7,1.1ZM60.5,63.9c1.1,0,1.9-.3,2.6-.8s1-1.4,1-2.5-.3-1.9-1-2.5-1.5-.8-2.6-.8-1.9.3-2.6.8-1,1.4-1,2.5.3,1.9,1,2.5,1.6.8,2.6.8ZM64.1,57.4l-1-4.2h8.9v3.5l-8,.7Z"/>
            <path class="cls-1" d="M82.6,75.3c-1.8,0-3.2-.4-4.5-1.1s-2.2-1.8-2.9-3.2-1-3.2-1-5.3v-12.5h6v12c0,1.7.3,3,1.1,3.8.7.9,1.8,1.3,3.3,1.3s1.8-.2,2.5-.6,1.3-1.1,1.7-1.9c.4-.8.6-1.8.6-3v-11.6h6v21.7h-5.3l-.5-3.5c-.6,1.2-1.6,2.2-2.8,2.9s-2.7,1.1-4.4,1.1h0Z"/>
            <path class="cls-1" d="M108.4,75.3c-2,0-3.7-.3-5.2-1s-2.6-1.5-3.4-2.6c-.8-1.1-1.3-2.4-1.5-3.8h6c.1.5.3,1,.7,1.4s.8.8,1.3,1,1.2.4,2,.4,1.3-.1,1.8-.3.8-.5,1.1-.8.4-.7.4-1.1c0-.6-.2-1-.5-1.3-.3-.3-.8-.6-1.5-.8s-1.4-.4-2.4-.6c-1-.2-2-.5-3-.8-1-.3-1.9-.7-2.7-1.1s-1.4-1.1-1.9-1.8c-.5-.7-.7-1.6-.7-2.7s.3-2.5,1.1-3.5,1.7-1.8,3.1-2.5,2.9-.9,4.8-.9c2.6,0,4.7.6,6.2,1.8s2.4,2.8,2.7,4.8h-5.7c-.1-.6-.5-1.1-1.1-1.5s-1.3-.5-2.3-.5-1.7.2-2.3.5-.8.8-.8,1.4.2.7.5,1,.8.6,1.5.8,1.4.4,2.4.6c1.7.3,3.2.7,4.4,1.2s2.2,1.1,3,1.9c.7.8,1.1,2,1.1,3.6,0,1.4-.3,2.6-1.1,3.7s-1.8,1.9-3.2,2.5c-1.4.6-3,.9-4.9.9h0Z"/>
            <path class="cls-1" d="M130.2,74.8c-1.5,0-2.9-.2-4-.7-1.2-.5-2.1-1.3-2.7-2.4s-.9-2.6-.9-4.6v-8.9h-3.7v-5h3.7l.6-6h5.3v6h5.7v5h-5.6v9c0,.9.2,1.6.6,2,.4.4,1.1.6,2.1.6h2.8v5.1h-3.9,0Z"/>
            <path class="cls-1" d="M146.7,75.3c-2.1,0-3.9-.5-5.6-1.4s-3-2.3-3.9-4-1.4-3.7-1.4-5.8.5-4.2,1.4-5.9,2.3-3.1,3.9-4c1.7-1,3.5-1.4,5.6-1.4s4,.5,5.6,1.4,3,2.3,3.9,4c1,1.7,1.4,3.7,1.4,5.9s-.5,4.2-1.5,5.9c-1,1.7-2.3,3-3.9,4-1.6,1-3.5,1.4-5.6,1.4h0ZM142.3,51.3l-.6-4,9.5-5.4.7,4.5-9.6,4.8ZM146.7,70.2c.9,0,1.8-.2,2.5-.7.7-.5,1.3-1.2,1.7-2.1.4-.9.7-2.1.7-3.4s-.2-2.5-.6-3.4c-.4-.9-1-1.6-1.7-2.1-.7-.5-1.6-.7-2.5-.7s-1.7.2-2.4.7-1.3,1.2-1.8,2.1c-.4.9-.6,2-.6,3.4s.2,2.5.6,3.4,1,1.6,1.7,2.1c.7.5,1.5.7,2.4.7h0Z"/>
          </g>
          <path class="cls-3" d="M232.1,127.1c0-3,.2-5.8.7-8.2.5-2.3,1.6-4.6,3.1-7l13.2-19.6c2.4-3.7,3.7-7.2,3.7-10.4-.1-4.4-1.5-7.9-4.2-10.4-2.7-2.4-5.7-3.6-9-3.6s-7.2,1.3-9.8,3.8c-2.9,2.6-4.3,7.1-4.3,13.4h-15.6v-3.2c.1-8.7,3-15.9,8.7-21.5,5.6-5.7,12.3-8.5,20.1-8.6,7.9,0,14.8,2.8,20.5,8,5.9,5.5,8.9,12.9,9,22.2-.1,6.7-1.7,12.2-4.8,16.6l-13.4,19.8c-1.8,2.7-2.6,6.1-2.5,10v9h-15.6v-10.3h0ZM232.1,149.1h15.6v16h-15.6v-16h0Z"/>
          <path class="cls-2" d="M43,45.1c0,3.6-.3,6.8-.8,9.6-.6,2.7-1.8,5.4-3.6,8.2l-15.5,23c-2.9,4.3-4.3,8.4-4.3,12.2.1,5.2,1.8,9.3,4.9,12.2,3.2,2.8,6.7,4.3,10.5,4.3s8.5-1.5,11.5-4.4c3.4-3.1,5.1-8.3,5.1-15.8h18.3v3.7c-.1,10.2-3.5,18.6-10.2,25.2-6.6,6.6-14.5,10-23.6,10.1-9.3-.1-17.3-3.2-24-9.4-6.9-6.4-10.5-15.1-10.6-26.1.1-7.8,2-14.3,5.6-19.5l15.7-23.2c2.1-3.2,3.1-7.1,3-11.7v-10.6h18.3v12.1h0ZM43,19.3h-18.3V.5h18.3v18.8Z"/>
        </g>
      </g>
    </g>
  </g>
</svg>