<?xml version="1.0" encoding="UTF-8"?>
<svg xmlns="http://www.w3.org/2000/svg" version="1.1" viewBox="0 0 81.8 81.8">
  <defs>
    <style>
      .cls-1 {
        fill: #001eb4;
      }

      .cls-2 {
        fill: #fff;
      }
    </style>
  </defs>
  <!-- Generator: Adobe Illustrator 28.6.0, SVG Export Plug-In . SVG Version: 1.2.0 Build 709)  -->
  <g>
    <g id="Capa_2">
      <g id="Capa_1-2">
        <g>
          <path class="cls-2" d="M41,81.8h-.2C18.3,81.8,0,63.5,0,41v-.2C0,18.3,18.3,0,40.8,0h.2c22.5,0,40.8,18.3,40.8,40.8v.2c0,22.5-18.3,40.8-40.8,40.8ZM40.8,2.8C19.8,2.8,2.8,19.9,2.8,40.8v.2c0,21,17,38,38,38h.2c21,0,38-17,38-38v-.2c0-21-17-38-38-38h-.2Z"/>
          <path class="cls-1" d="M42.1,32.4v2.3h8.3l-2.2,5.9h-5.8v22.6h-8.2v-22.6h-5.2v-5.9h5.3v-2.4c0-3.6,1.1-6.6,3.2-8.6,2.1-2.1,5.3-3.2,9.2-3.2s4.9.5,6.5,1.3l-2,5.5c-1.1-.5-2.3-.8-3.5-.8-3.7,0-5.6,2.1-5.6,5.9h0Z"/>
        </g>
      </g>
    </g>
  </g>
</svg>