<?xml version="1.0" encoding="UTF-8"?>
<svg xmlns="http://www.w3.org/2000/svg" version="1.1" viewBox="0 0 81.8 81.8">
  <defs>
    <style>
      .cls-1 {
        fill: #001eb4;
      }

      .cls-2 {
        fill: #fff;
      }
    </style>
  </defs>
  <!-- Generator: Adobe Illustrator 28.6.0, SVG Export Plug-In . SVG Version: 1.2.0 Build 709)  -->
  <g>
    <g id="Capa_2">
      <g id="Capa_1-2">
        <g>
          <path class="cls-2" d="M41,81.8h-.2C18.3,81.8,0,63.5,0,41v-.2C0,18.3,18.3,0,40.8,0h.2c22.5,0,40.8,18.3,40.8,40.8v.2c0,22.4-18.3,40.7-40.8,40.8h0ZM40.8,2.8C19.8,2.8,2.8,19.9,2.8,40.8v.2c0,21,17,38,38,38h.2c21,0,38-17,38-38v-.2c0-21-17-38-38-38h-.2Z"/>
          <g>
            <path class="cls-1" d="M23.2,27.7c-.9-.9-1.4-1.9-1.4-3.2s.5-2.4,1.4-3.2c.9-.9,2.1-1.3,3.5-1.3s2.6.4,3.5,1.3,1.4,1.9,1.4,3.2-.5,2.3-1.4,3.2c-.9.9-2.1,1.3-3.5,1.3s-2.5-.5-3.5-1.3ZM30.9,32.6v26.2h-8.3v-26.2h8.3Z"/>
            <path class="cls-1" d="M58.5,35.2c1.8,2,2.7,4.6,2.7,8.1v15.1h-7.9v-14c0-1.7-.5-3.1-1.3-4s-2.1-1.4-3.6-1.4-2.7.5-3.6,1.4c-.9,1-1.3,2.3-1.3,4v14h-7.9v-25.9h7.9v3.4c.8-1.1,1.9-2,3.2-2.7s2.9-1,4.6-1c3,0,5.4,1,7.2,3h0Z"/>
          </g>
        </g>
      </g>
    </g>
  </g>
</svg>