<?xml version="1.0" encoding="UTF-8"?>
<svg xmlns="http://www.w3.org/2000/svg" version="1.1" viewBox="0 0 81.8 81.8">
  <defs>
    <style>
      .cls-1 {
        fill: #001eb4;
      }

      .cls-2 {
        fill: #fff;
      }
    </style>
  </defs>
  <!-- Generator: Adobe Illustrator 28.6.0, SVG Export Plug-In . SVG Version: 1.2.0 Build 709)  -->
  <g>
    <g id="Capa_2">
      <g id="Capa_1-2">
        <g>
          <path class="cls-2" d="M41,81.8h-.2C18.3,81.8,0,63.5,0,41v-.2C0,18.3,18.3,0,40.8,0h.2c22.5,0,40.8,18.3,40.8,40.8v.2c0,22.5-18.3,40.8-40.8,40.8ZM40.8,2.8C19.8,2.8,2.8,19.9,2.8,40.8v.2c0,21,17,38,38,38h.2c21,0,38-17,38-38v-.2c0-21-17-38-38-38h-.2Z"/>
          <g>
            <path class="cls-1" d="M51.4,20.7h-21c-5.8,0-10.5,4.7-10.5,10.5v19.2c0,5.8,4.7,10.5,10.5,10.5h21c5.8,0,10.5-4.7,10.5-10.5v-19.1c0-5.8-4.7-10.6-10.5-10.6ZM23.6,31.3c0-3.8,3.1-6.8,6.8-6.8h21c3.8,0,6.8,3.1,6.8,6.8v19.2c0,3.8-3.1,6.8-6.8,6.8h-21c-3.8,0-6.8-3.1-6.8-6.8,0,0,0-19.2,0-19.2Z"/>
            <path class="cls-1" d="M40.9,50.7c5.4,0,9.8-4.4,9.8-9.8s-4.4-9.8-9.8-9.8-9.8,4.4-9.8,9.8,4.4,9.8,9.8,9.8ZM40.9,34.8c3.3,0,6.1,2.7,6.1,6.1s-2.8,6.1-6.1,6.1-6.1-2.7-6.1-6.1,2.7-6.1,6.1-6.1Z"/>
            <path class="cls-1" d="M51.6,32.7c1.5,0,2.6-1.2,2.6-2.6s-1.2-2.6-2.6-2.6-2.6,1.2-2.6,2.6,1.1,2.6,2.6,2.6Z"/>
          </g>
        </g>
      </g>
    </g>
  </g>
</svg>