<?xml version="1.0" encoding="UTF-8"?>
<svg xmlns="http://www.w3.org/2000/svg" version="1.1" viewBox="0 0 63.7 45.8">
  <defs>
    <style>
      .cls-1 {
        fill: #001eb4;
      }
    </style>
  </defs>
  <!-- Generator: Adobe Illustrator 28.6.0, SVG Export Plug-In . SVG Version: 1.2.0 Build 709)  -->
  <g>
    <g id="Capa_1">
      <g id="Capa_2">
        <g id="Capa_1-2">
          <g id="Objeto_inteligente_vectorial">
            <path class="cls-1" d="M1.4,7.4c.6-.7,1.5-1.3,2.3-1.3h1v4.2h6.5v1.9c0,1-.9,2.3-2.9,2.3h-3.7v7.4c0,2.5,1.1,3.5,3,3.5s2.7-.2,3.5-.7h0v1.6c0,1.9-1.4,3.2-4.2,3.2-4.5.4-6.9-2.3-6.9-6.8v-11.5c0-1.9.3-2.6,1.4-3.8M20.7,29.9c2,0,2.8-.8,2.8-2.9v-.9h-.8c-2.1,0-2.9-.6-2.9-2.5v-9c0-2.4-1.3-3.6-3.4-3.6h-1.3v12.9c0,3.9,2,6,5.8,6M17.2,9.1c1.5,0,2.8-1.3,2.8-2.8s-1.3-2.8-2.8-2.8-2.8,1.2-2.8,2.8,1.2,2.8,2.8,2.8M40.3,20.4c1.3,0,2.5,1,2.5,2.1v3.1c0,3.5-2.4,5.2-7.2,5.2s-10.7-3.5-10.7-10.1,4.8-10.6,11.7-10.6,5.9,2.2,5.9,4.2v1.6h-.5c-1.2-1-3.4-1.6-5.7-1.6-3.6,0-6.2,2.5-6.2,5.8,0,5.3,3.4,6.4,6.2,6.4s2.1-.7,2.1-1.5v-1.5c0-1.5-.3-2.7-.3-2.7v-.3h0c0-.1,2.4-.1,2.4-.1M45.8,5.8c0-.6.3-1.4.6-2,1.1-1.7,4.3-3.8,8-3.8s6.6,1.7,8.1,3.6c.4.6.7,1.6.7,2.2v2h0c-1.9-2.2-4.5-4.1-8.4-4.1s-7.3,1.9-8.8,4.1h0v-2.1h-.2ZM44.9,20.4c0,5.1,3.3,9.7,9.2,9.7s9.6-4.6,9.6-10.4-3.3-9.8-9.2-9.8-9.6,4.7-9.6,10.5M58.7,20.4c0,3.1-1.4,5.4-4.2,5.4s-4.6-2.3-4.6-6.1,1.4-5.5,4.2-5.5,4.6,2.3,4.6,6.2M57.4,33.7v2.4c0,.9-.4,2.4-1,3.4-1.5,2.8-6.6,6.2-12.1,6.2s-9.8-2.8-12-6c-.6-1-1.1-2.7-1.1-3.7v-2.3h0c2.8,3.7,7.2,6.8,13,6.8s10.5-3.1,12.9-6.7h0"/>
          </g>
        </g>
      </g>
    </g>
  </g>
</svg>