<?xml version="1.0" encoding="UTF-8"?>
<svg xmlns="http://www.w3.org/2000/svg" version="1.1" viewBox="0 0 81.8 81.8">
  <defs>
    <style>
      .cls-1 {
        fill: #001eb4;
      }

      .cls-2 {
        fill: #fff;
      }
    </style>
  </defs>
  <!-- Generator: Adobe Illustrator 28.6.0, SVG Export Plug-In . SVG Version: 1.2.0 Build 709)  -->
  <g>
    <g id="Capa_2">
      <g id="Capa_1-2">
        <g>
          <path class="cls-2" d="M41,81.8h-.2C18.3,81.8,0,63.5,0,41v-.2C0,18.3,18.3,0,40.8,0h.2c22.5,0,40.8,18.3,40.8,40.8v.2c-.1,22.5-18.4,40.8-40.8,40.8ZM40.8,2.8C19.8,2.8,2.8,19.9,2.8,40.8v.2c0,21,17,38,38,38h.2c21,0,38-17,38-38v-.2c0-21-17-38-38-38h-.2Z"/>
          <path class="cls-1" d="M61,30v7.5c-1.3,0-3-.4-4.9-1.1-2.5-.9-4.3-2.1-5.5-3.1v15.1h0v.9c0,7.5-6.1,13.6-13.6,13.6s-13.6-6.1-13.6-13.6,6.1-13.6,13.6-13.6,1.5,0,2.2.2v7.3c-.7-.2-1.4-.4-2.2-.4-3.5,0-6.4,2.9-6.4,6.4s2.9,6.4,6.4,6.4,6.4-2.9,6.4-6.4v-29.7h7.5c0,.6,0,1.3,0,1.9,0,1.2.5,2.4,1.3,3.4.9,1.1,2.2,2.5,4.1,3.5,1.8,1,3.4,1.5,4.6,1.7Z"/>
        </g>
      </g>
    </g>
  </g>
</svg>