<?xml version="1.0" encoding="UTF-8"?>
<svg xmlns="http://www.w3.org/2000/svg" version="1.1" viewBox="0 0 81.8 81.8">
  <defs>
    <style>
      .cls-1 {
        fill: #001eb4;
      }

      .cls-2 {
        fill: #fff;
      }
    </style>
  </defs>
  <!-- Generator: Adobe Illustrator 28.6.0, SVG Export Plug-In . SVG Version: 1.2.0 Build 709)  -->
  <g>
    <g id="Capa_2">
      <g id="Capa_1-2">
        <g>
          <path class="cls-2" d="M41,81.8h-.2C18.3,81.8,0,63.5,0,41v-.2C0,18.3,18.3,0,40.8,0h.2c22.5,0,40.8,18.3,40.8,40.8v.2c-.1,22.5-18.4,40.8-40.8,40.8ZM40.8,2.8C19.8,2.8,2.8,19.9,2.8,40.8v.2c0,21,17,38,38,38h.2c21,0,38-17,38-38v-.2c0-21-17-38-38-38h-.2Z"/>
          <path class="cls-1" d="M44.3,38.1l13.5-15.7h-3.2l-11.7,13.6-9.3-13.6h-10.8l14.1,20.6-14.1,16.4h3.2l12.4-14.4,9.9,14.4h10.7l-14.7-21.3h0ZM40,43.2l-1.4-2-11.5-16.4h4.9l9.2,13.2,1.4,2,12,17.1h-4.9l-9.7-13.9h0Z"/>
        </g>
      </g>
    </g>
  </g>
</svg>